<?xml version="1.0" encoding="UTF-8" standalone="no"?>
<!-- Created with Inkscape (http://www.inkscape.org/) -->

<svg
   width="64mm"
   height="64mm"
   viewBox="0 0 64 64"
   version="1.1"
   id="svg959"
   inkscape:version="1.1.2 (b8e25be833, 2022-02-05)"
   sodipodi:docname="Aquilar.svg"
   xmlns:inkscape="http://www.inkscape.org/namespaces/inkscape"
   xmlns:sodipodi="http://sodipodi.sourceforge.net/DTD/sodipodi-0.dtd"
   xmlns="http://www.w3.org/2000/svg"
   xmlns:svg="http://www.w3.org/2000/svg">
  <sodipodi:namedview
     id="namedview961"
     pagecolor="#505050"
     bordercolor="#ffffff"
     borderopacity="1"
     inkscape:pageshadow="0"
     inkscape:pageopacity="0"
     inkscape:pagecheckerboard="1"
     inkscape:document-units="px"
     showgrid="false"
     inkscape:zoom="3.2866211"
     inkscape:cx="120.94488"
     inkscape:cy="120.94488"
     inkscape:window-width="1920"
     inkscape:window-height="991"
     inkscape:window-x="-9"
     inkscape:window-y="-9"
     inkscape:window-maximized="1"
     inkscape:current-layer="layer1" />
  <defs
     id="defs956" />
  <g
     inkscape:label="Layer 1"
     inkscape:groupmode="layer"
     id="layer1">
    <path
       id="path1042"
       style="fill:#ff6600;stroke-width:2;stroke-linecap:square;paint-order:markers stroke fill;stop-color:#000000"
       d="M 120.94531 4.1074219 A 116.83732 116.83732 0 0 0 4.1074219 120.94531 A 116.83732 116.83732 0 0 0 120.94531 237.78125 A 116.83732 116.83732 0 0 0 237.78125 120.94531 A 116.83732 116.83732 0 0 0 120.94531 4.1074219 z M 66.240234 26.054688 C 66.737386 26.034756 66.726653 26.333022 66.554688 28.400391 C 66.207651 32.569532 67.998817 43.068352 70.013672 48.669922 C 71.269337 52.160905 76.578362 61.303781 79.853516 65.613281 C 84.279271 71.436713 89.736737 77.326212 94.449219 81.365234 C 97.380431 83.877558 100.47063 86.12721 105.9707 89.755859 C 114.6791 95.501214 117.12208 98.330758 121.08789 107.26367 C 126.25616 118.90515 129.91766 123.53051 137.05664 127.4375 C 139.48933 128.76885 140.70115 129.21647 144.54297 130.20117 C 150.22355 131.65714 151.89765 131.66134 162.18555 130.24609 C 174.25038 128.58644 177.48212 128.62361 183.95508 130.49805 C 190.42894 132.37267 193.96605 134.97517 197.57617 140.52344 C 199.83535 143.99546 200.96809 146.65591 200.8418 148.19531 C 200.71291 149.76496 198.68476 152.16032 196.59961 153.20703 C 194.69119 154.16498 193.93473 154.10333 194.49805 153.0332 C 195.76347 150.6291 195.77833 150.88199 194.30273 149.72656 C 192.46472 148.28746 184.93475 146.13559 180.68555 145.83594 C 174.26426 145.38312 172.65474 146.31868 161.25977 157.13867 C 158.14534 160.09596 149.63273 165.40624 144.7832 167.41602 C 141.21071 168.89654 141.27794 168.92081 140.12305 165.67969 C 139.61142 164.244 139.50748 164.12481 139.34375 164.78906 C 139.08149 165.85244 139.21098 171.04045 139.58984 174.62695 C 140.24422 180.823 143.50964 189.45448 148.29297 197.63477 L 151.20703 202.61719 L 155.26953 203.43359 L 159.33203 204.25 L 160.18164 205.41797 C 161.85295 207.71714 161.97202 212.28348 160.39258 213.53711 C 159.7829 214.02102 159.74941 214.00172 159.20117 212.88477 C 157.73116 209.89007 157.49346 209.60513 156.20117 209.28516 C 154.69367 208.91193 154.13052 209.46862 154.5957 210.87305 C 155.28757 212.96199 155.45989 214.10847 155.14844 214.55469 C 154.75798 215.11441 154.21697 214.70448 152.44531 212.50391 C 150.49469 210.08113 149.56614 210.53031 149.11328 214.11328 C 148.99056 215.08528 148.80589 215.85895 148.70508 215.83398 C 148.29864 215.73318 146.20479 213.14485 145.79492 212.23633 C 145.00915 210.49456 145.07089 209.00351 146 207.21094 C 146.79731 205.67262 146.80584 205.57235 146.26562 204.60352 C 145.49532 203.22206 144.41941 202.33323 143.12891 202.01367 C 141.79623 201.68372 141.33232 201.99937 139.41602 204.54883 C 138.5887 205.64959 137.7189 206.56539 137.48242 206.58398 C 137.22281 206.60591 136.88573 205.70231 136.63281 204.30469 C 136.15031 201.63766 136.26441 201.67282 132.54102 202.99609 C 131.20495 203.47105 129.69185 203.78765 129.17773 203.69922 L 128.24219 203.53906 L 128.62109 200.94336 C 128.82946 199.51551 128.97067 197.51861 128.93359 196.50781 L 128.86523 194.67188 L 126.74805 196.01758 C 124.27891 197.58842 122.86481 198.14745 122.32031 197.76758 C 122.0692 197.59243 122.05839 196.65531 122.29102 195.11914 C 122.80988 191.68921 122.71694 188.21685 122.10156 188.06445 C 121.94547 188.02586 121.45548 188.43464 121.01367 188.97266 C 119.56725 190.73349 119.49435 190.56801 118.57031 183.44531 C 118.02728 179.26488 117.56909 177.52801 116.9668 177.37891 C 116.73916 177.3227 115.24984 177.708 113.6582 178.23633 C 112.06655 178.76483 108.15141 179.84497 104.95703 180.63672 L 99.148438 182.07617 L 98.033203 184.20312 C 95.859381 188.34775 91.507879 192.60745 87.458984 194.55273 C 85.652064 195.42088 83.09226 195.86414 82.789062 195.36133 C 82.700584 195.21487 83.235133 194.35798 83.976562 193.45703 C 86.044085 190.94469 85.622445 190.71584 82.34375 192.57422 C 80.743131 193.48148 78.447418 194.6024 77.244141 195.06445 C 74.865737 195.97781 70.515832 196.65425 68.248047 196.46289 L 66.822266 196.3418 L 67.648438 195.56836 C 68.1024 195.14199 69.312875 194.12164 70.337891 193.30078 C 71.362914 192.47993 72.140802 191.70736 72.066406 191.58398 C 71.991912 191.46051 71.134877 191.63 70.162109 191.96094 C 67.733774 192.78673 64.266167 193.38141 61.642578 193.42383 C 58.66267 193.47205 51.52491 191.98937 49.994141 191.00391 C 48.795411 190.23217 48.395304 189.31744 49.361328 189.55664 C 50.086208 189.73628 55.368194 188.54743 56.824219 187.87695 C 57.432534 187.59674 57.851176 187.23313 57.753906 187.07031 C 57.656659 186.90764 55.376174 186.03789 52.685547 185.13672 C 47.352059 183.35037 46.086436 182.65408 43.435547 180.04102 C 41.468556 178.10214 40.63703 176.82096 41.222656 176.63281 C 41.431022 176.5658 42.74312 176.96498 44.136719 177.51953 C 46.223868 178.35008 47.092168 178.54099 49.0625 178.60742 C 51.681202 178.69571 55.633977 178.11425 58.234375 177.25781 L 59.896484 176.71094 L 57.681641 176.15039 C 55.133324 175.50603 51.027513 173.57864 47.914062 171.56445 C 44.021077 169.04593 43.694195 167.99819 47.056641 168.81445 C 49.061158 169.30104 52.045411 169.57109 56.078125 169.63086 C 62.736239 169.72954 82.288868 164.2895 95.824219 158.57422 C 101.26982 156.27482 108.96832 151.66486 109.24805 150.53516 C 109.36185 150.07514 108.46922 150.02147 105.40234 150.30078 C 102.01507 150.60919 98.096804 150.51564 96.353516 150.08398 L 95.158203 149.78711 L 98.294922 147.88477 C 100.0194 146.83789 101.36051 145.86578 101.27539 145.72461 C 101.19028 145.58348 100.09382 145.45767 98.839844 145.44531 C 95.672584 145.41394 92.88975 145.11186 88.726562 144.34766 C 82.723977 143.24582 82.643454 142.69803 88.287109 141.35547 C 91.960145 140.48166 94.102351 139.64614 93.832031 139.19336 C 93.740264 139.03949 92.557261 138.92271 91.205078 138.93359 C 87.671768 138.96232 77.568122 136.46959 75.900391 135.1582 C 74.865779 134.34465 74.830373 134.25047 75.451172 133.99219 C 75.822737 133.83768 76.677786 133.74475 77.351562 133.78516 C 78.025305 133.82552 79.891475 133.59984 81.5 133.2832 C 86.71288 132.2576 87.596807 131.33931 83.601562 131.09961 C 81.155414 130.95285 73.369102 129.02665 70.818359 127.9375 C 68.526741 126.95895 66.093062 125.20553 66.234375 124.63477 C 66.354753 124.14825 67.426097 124.10335 69.121094 124.51367 C 71.044994 124.97951 75.701393 124.91861 77.810547 124.40039 L 79.6875 123.93945 L 74.353516 122.39844 C 67.625794 120.45556 63.863138 118.70045 60.712891 116.03516 C 57.201513 113.06433 57.668544 112.82514 64.46875 114.10938 C 68.863732 114.93936 72.53536 115.31122 73.654297 115.03711 L 74.548828 114.81641 L 73.800781 114.44141 C 73.389523 114.23523 71.131357 113.2773 68.78125 112.3125 C 63.660156 110.21012 62.416089 109.56969 59.943359 107.75781 C 56.780106 105.43993 52.937828 100.93093 53.205078 99.851562 C 53.339025 99.310342 53.323249 99.307742 55.890625 100.54688 C 58.386096 101.75123 69.553384 105.30485 70.830078 105.30078 C 72.668546 105.29511 71.316923 104.08326 67.871094 102.64844 C 63.356093 100.76841 57.778589 96.802661 54.244141 92.960938 C 51.493132 89.970798 48.400272 84.498612 49.191406 84.021484 C 49.329699 83.93807 50.106674 84.383954 50.917969 85.011719 C 55.315672 88.414337 59.991882 91.096002 64.970703 93.068359 C 70.593087 95.29568 70.993721 95.112389 66.677734 92.287109 C 58.465671 86.911457 52.811545 80.902036 50.753906 75.361328 C 49.810207 72.820208 48.751158 66.972394 49.126953 66.378906 C 49.237126 66.204859 50.222392 67.30557 51.316406 68.826172 C 54.92728 73.844912 58.51898 77.298612 62.984375 80.042969 C 67.725619 82.956883 67.861464 82.710135 63.744141 78.669922 C 58.056658 73.088939 54.914619 67.843482 53.544922 61.644531 C 52.511754 56.968553 52.747626 49.691404 53.945312 49.306641 C 54.142944 49.243334 54.867207 50.813043 55.552734 52.794922 C 57.194554 57.541506 58.460792 59.829945 61.546875 63.626953 C 64.255935 66.960119 65.69812 68.407468 65.820312 67.914062 C 65.861207 67.748935 65.212654 66.367134 64.380859 64.84375 C 60.939596 58.541369 58.888195 51.890731 58.583984 46.056641 C 58.440287 43.301656 58.539856 42.554459 59.650391 38.107422 C 60.632497 34.174629 61.124247 32.753194 62.121094 30.957031 C 63.643495 28.213932 65.267465 26.170648 65.996094 26.080078 C 66.088926 26.068535 66.169213 26.057535 66.240234 26.054688 z M 126.375 45.712891 C 126.55949 45.691023 126.69293 45.731645 126.76172 45.845703 C 126.89192 46.061514 126.68755 48.122398 126.30664 50.423828 C 125.10713 57.670815 125.17143 61.960374 126.56836 67.820312 C 127.5885 72.099467 129.24617 75.978598 131.89258 80.28125 C 135.56488 86.251895 138.25052 89.226798 147.79492 97.884766 C 155.42711 104.80807 157.44859 107.01921 158.51562 109.61133 C 160.03265 113.29657 160.73348 120.4831 159.90234 123.84766 C 159.46227 125.62902 158.81018 126.01015 155.28711 126.53711 C 153.04709 126.87213 152.64553 126.82262 147.20703 125.55859 C 144.05942 124.82701 140.7804 123.91673 139.92188 123.53516 C 136.29832 121.92469 132.24498 118.30052 129.59766 114.30469 C 128.70183 112.95249 126.72693 109.23096 125.20898 106.03516 C 120.58034 96.290132 118.7689 93.84033 112.63867 89.037109 C 110.75851 87.563948 109.02781 86.073448 108.79297 85.724609 C 108.19163 84.831318 107.48172 81.142104 107.26172 77.765625 C 107.01514 73.979672 107.96443 68.969084 109.65234 65.146484 C 110.30777 63.662033 111.10712 62.28829 111.42969 62.09375 C 111.9482 61.780956 112.01703 61.910128 112.01758 63.214844 C 112.01966 68.564134 112.09395 69.130226 113.20117 72.185547 C 114.40802 75.516014 116.84949 80.285757 117.0293 79.664062 C 117.08716 79.463974 116.82212 77.58184 116.43945 75.482422 C 115.0935 68.103136 115.10182 62.012572 116.46484 58.101562 C 117.37686 55.485045 119.96869 51.329881 122.25781 48.8125 C 123.82207 47.092259 125.57553 45.807651 126.375 45.712891 z M 102.31836 75.066406 L 103.81445 79.302734 C 104.63667 81.633006 105.26841 83.718628 105.21875 83.9375 C 105.02649 84.784946 103.46258 83.924288 102.68359 82.542969 C 101.84142 81.049333 101.68895 79.643237 102.07227 76.855469 L 102.31836 75.066406 z M 190.37305 138.76758 C 190.17301 138.77536 190.12993 138.91556 190.11523 139.19531 C 190.05026 140.42952 192.14708 141.59235 193.46484 141.05273 C 194.14233 140.77517 194.14722 140.74963 193.57812 140.23633 C 193.25471 139.94455 192.34985 139.44983 191.56836 139.13867 C 190.92961 138.88433 190.57308 138.7598 190.37305 138.76758 z M 152.49023 168.15625 C 152.53518 168.15795 152.56521 168.16644 152.58008 168.18164 C 152.71062 168.31513 153.22953 169.88655 153.73242 171.67383 C 156.40494 181.17241 160.48772 188.71834 166.05273 194.44141 L 168.25 196.69922 L 170.72461 196.18555 C 177.06561 194.87252 180.68477 198.26085 179.52148 204.41992 L 179.08789 206.71484 L 178.35742 205.19531 C 176.47446 201.28025 175.43573 200.54347 173.75 201.93164 L 172.90039 202.63281 L 173.44141 204.05859 C 173.73969 204.84354 173.89263 205.86185 173.7793 206.32031 L 173.57227 207.1543 L 171.48633 205.48242 C 169.20886 203.65748 167.32981 202.94702 166.79688 203.71094 C 166.61512 203.97165 166.6908 205.17309 166.96875 206.44336 C 167.44105 208.60259 167.43308 208.70399 166.81445 208.55078 C 166.45714 208.46219 165.55916 207.44815 164.82031 206.29688 L 164.82227 206.29688 C 163.16057 203.70751 162.90595 202.69834 163.4082 200.66992 C 163.87243 198.79503 163.51906 198.26327 161.00781 197.05859 C 158.23258 195.72728 158.01172 195.74271 156.79883 197.3418 C 155.35379 199.24665 154.70991 199.38083 153.21484 198.08398 C 151.64106 196.71903 147.75822 190.15759 146.48242 186.70508 C 145.14412 183.08342 142.54841 173.9542 142.54492 172.85938 C 142.5426 172.12473 142.81252 171.88046 144.47656 171.125 C 147.8843 169.57787 151.81611 168.13073 152.49023 168.15625 z "
       transform="scale(0.26458333)" />
  </g>
</svg>
