<?xml version="1.0" encoding="UTF-8" standalone="no"?>
<!-- Created with Inkscape (http://www.inkscape.org/) -->

<svg
   width="64mm"
   height="64mm"
   viewBox="0 0 64 64"
   version="1.1"
   id="svg959"
   inkscape:version="1.1.2 (b8e25be833, 2022-02-05)"
   sodipodi:docname="Blumdar.svg"
   xmlns:inkscape="http://www.inkscape.org/namespaces/inkscape"
   xmlns:sodipodi="http://sodipodi.sourceforge.net/DTD/sodipodi-0.dtd"
   xmlns="http://www.w3.org/2000/svg"
   xmlns:svg="http://www.w3.org/2000/svg">
  <sodipodi:namedview
     id="namedview961"
     pagecolor="#505050"
     bordercolor="#ffffff"
     borderopacity="1"
     inkscape:pageshadow="0"
     inkscape:pageopacity="0"
     inkscape:pagecheckerboard="1"
     inkscape:document-units="px"
     showgrid="false"
     inkscape:zoom="3.2866211"
     inkscape:cx="120.94488"
     inkscape:cy="120.94488"
     inkscape:window-width="1920"
     inkscape:window-height="991"
     inkscape:window-x="-9"
     inkscape:window-y="-9"
     inkscape:window-maximized="1"
     inkscape:current-layer="layer1" />
  <defs
     id="defs956" />
  <g
     inkscape:label="Layer 1"
     inkscape:groupmode="layer"
     id="layer1">
    <path
       id="path1042"
       style="fill:#ff6600;stroke-width:2;stroke-linecap:square;paint-order:markers stroke fill;stop-color:#000000"
       d="M 120.94531 4.1074219 A 116.83732 116.83732 0 0 0 4.1074219 120.94531 A 116.83732 116.83732 0 0 0 120.94531 237.78125 A 116.83732 116.83732 0 0 0 237.78125 120.94531 A 116.83732 116.83732 0 0 0 120.94531 4.1074219 z M 180.03516 32.125 C 189.62771 32.27879 196.10964 40.762646 196.06445 53.525391 L 196.06055 55.054688 L 193.33984 54.740234 C 190.15967 54.372978 185.63335 54.581113 181.4707 55.285156 L 178.51367 55.785156 L 177.9043 52.767578 C 176.72528 46.934682 174.16218 40.656206 171.33203 36.666016 C 169.95754 34.728142 169.93348 34.643434 170.66016 34.216797 C 172.06509 33.392153 175.51744 32.456703 178.07617 32.207031 C 178.7423 32.142037 179.39565 32.114747 180.03516 32.125 z M 151.94727 32.142578 C 160.98544 31.937739 168.66784 40.505412 171.41016 54.001953 C 171.78784 55.86074 172.09103 57.445791 172.08203 57.523438 C 172.07296 57.60088 170.85924 58.106363 169.38477 58.646484 C 157.36295 63.050209 145.4269 72.223821 138.92578 82.058594 C 136.59666 85.582217 134.33342 90.957132 133.70703 94.449219 C 133.3939 96.19499 133.01193 97.808955 132.85742 98.035156 C 132.68455 98.285966 131.98885 97.295399 131.06641 95.486328 C 129.2222 91.869562 128.42317 89.6544 127.5957 85.865234 C 124.16521 70.155817 128.1292 51.144955 137.08398 40.363281 C 141.15799 35.458124 146.01501 32.620829 151.06836 32.191406 C 151.36261 32.166413 151.65571 32.149186 151.94727 32.142578 z M 190.45117 61.126953 C 200.57119 61.304152 208.37871 65.51434 211.08984 73.109375 C 213.26032 79.1898 212.17248 85.565091 207.74219 92.734375 C 204.66117 97.720169 201.53806 101.1362 196.26172 105.30078 C 190.39015 109.93378 185.7684 112.51387 178.92188 114.98047 C 170.64696 117.9617 164.71746 118.82509 157.86719 118.04883 C 150.92861 117.26252 146.48809 115.05351 142.99805 110.64844 C 141.07525 108.22146 140.88517 108.07397 140.24219 108.5332 C 139.17202 109.29754 137.00402 112.874 135.6582 116.0957 C 132.96242 122.54837 131.15772 131.07084 128.85156 148.24805 C 127.03455 161.78203 127.00474 162.13538 127.44531 165.00586 C 129.16793 176.22875 129.34739 189.48276 127.95117 202.37305 C 127.30936 208.29837 127.04812 209.0296 125.39062 209.56445 C 124.23109 209.93863 123.49512 209.81218 122.41797 209.05469 C 121.12371 208.14443 121.02635 206.82218 121.68555 199.08008 C 124.11876 170.50388 119.61369 149.49609 109.35742 141.58594 C 107.74094 140.33934 103.06687 138.23974 101.50391 138.05859 C 101.04532 138.00545 100.75864 138.35019 100.48047 139.28906 C 99.838697 141.45447 97.214847 145.30325 95.335938 146.83594 C 90.319136 150.92839 84.045105 152.30851 75.173828 151.27344 C 61.335511 149.65882 46.650301 141.31783 37.658203 129.96289 C 32.427581 123.35782 29.93262 117.44352 29.730469 111.17969 C 29.315173 98.312236 41.618273 90.615515 57.875 93.572266 C 71.512012 96.05252 84.819639 103.95758 93.308594 114.62109 C 97.458545 119.83411 99.678669 124.49808 101.05859 130.89648 C 101.15429 131.34034 101.57164 131.58647 102.39258 131.68164 C 103.04995 131.75784 104.47653 132.10878 105.5625 132.46094 C 106.64847 132.81311 107.62242 133.03366 107.72656 132.95117 C 107.83065 132.86866 107.74439 131.49777 107.53516 129.90625 C 106.81681 124.4416 103.61049 117.12558 99.59375 111.78906 C 93.616839 103.84842 83.528105 96.024364 73.505859 91.556641 L 70.988281 90.433594 L 71.519531 87.96875 C 74.527593 74.018287 83.439088 65.042799 93.164062 66.169922 C 97.705569 66.696289 101.80729 69.239029 105.72852 73.962891 C 113.46432 83.2822 117.01448 97.799407 115.25781 112.91992 C 114.35956 120.65124 112.40102 126.73631 109.2832 131.47852 C 108.71258 132.34626 108.23678 133.12767 108.22656 133.2168 C 108.21598 133.30573 108.78554 133.64105 109.49219 133.95703 C 113.36965 135.69983 118.09315 140.23127 120.65039 144.66016 L 122.24219 147.41602 L 123.32422 140.19336 C 126.47444 119.19405 130.49341 108.09539 136.78906 103.00586 L 139.22266 101.03906 L 139.83594 97.414062 C 140.17311 95.420898 140.81462 92.8847 141.26172 91.777344 C 145.88909 80.316701 158.34451 69.534553 173.04492 64.261719 C 179.21497 62.048605 185.15021 61.034135 190.45117 61.126953 z M 63.447266 64.570312 C 64.936284 64.550036 66.501334 64.737341 68.146484 65.130859 C 70.850691 65.777737 74.122165 67.149099 74.068359 67.613281 C 74.048328 67.785628 73.585817 68.482275 73.039062 69.160156 C 69.611583 73.411531 66.057432 81.207571 64.902344 87.009766 L 64.658203 88.236328 L 63.080078 87.878906 C 60.522438 87.299127 51.37607 86.322476 49.070312 86.382812 L 46.943359 86.4375 L 47.71875 81.544922 C 48.82357 74.571939 50.671622 70.896555 54.666016 67.724609 C 57.262822 65.66247 60.171426 64.614921 63.447266 64.570312 z M 178.87695 126.33398 C 180.02521 126.34337 181.13409 126.40937 182.18945 126.53125 C 184.69574 126.82065 185.03781 126.94844 185.77344 127.87695 C 186.57902 128.89374 186.5788 128.93943 185.90039 133.02148 C 184.01206 144.38336 177.97989 154.58081 168.86133 161.82812 C 160.44221 168.51951 151.07221 171.77259 140.41211 171.70508 C 136.33655 171.67938 135.55847 171.59303 134.55469 171.04688 C 132.9936 170.19756 132.76405 168.97258 133.43359 165.05469 C 136.22935 148.69513 147.75085 134.78452 163.19141 129.12695 C 168.21115 127.28766 173.90116 126.2933 178.87695 126.33398 z M 150.74805 173.7832 C 152.61907 173.78197 154.50206 174.14267 157.13867 174.92383 C 167.80569 178.0842 176.46832 184.91663 181.54688 194.17578 C 183.51805 197.76961 185.27143 202.76977 185.06445 204.20508 C 184.74569 206.41598 183.83206 206.78942 175.31836 208.19531 C 174.51089 208.32862 171.04712 208.17567 167.61914 207.85547 C 162.4056 207.3684 160.87668 207.09882 158.26953 206.20898 C 150.53122 203.56784 144.14278 199.13072 139.27344 193.01172 C 135.38702 188.12787 131.60134 180.0297 131.91992 177.28125 C 132.11037 175.63826 133.77657 174.56064 135.76953 174.78906 C 138.42082 175.09275 144.07266 174.78428 147.23438 174.16406 C 148.50743 173.91435 149.62543 173.78394 150.74805 173.7832 z "
       transform="scale(0.26458333)" />
  </g>
</svg>
