<?xml version="1.0" encoding="UTF-8" standalone="no"?>
<!-- Created with Inkscape (http://www.inkscape.org/) -->

<svg
   width="64mm"
   height="64mm"
   viewBox="0 0 64 64"
   version="1.1"
   id="svg959"
   inkscape:version="1.1.2 (b8e25be833, 2022-02-05)"
   sodipodi:docname="Calderar.svg"
   xmlns:inkscape="http://www.inkscape.org/namespaces/inkscape"
   xmlns:sodipodi="http://sodipodi.sourceforge.net/DTD/sodipodi-0.dtd"
   xmlns="http://www.w3.org/2000/svg"
   xmlns:svg="http://www.w3.org/2000/svg">
  <sodipodi:namedview
     id="namedview961"
     pagecolor="#505050"
     bordercolor="#ffffff"
     borderopacity="1"
     inkscape:pageshadow="0"
     inkscape:pageopacity="0"
     inkscape:pagecheckerboard="1"
     inkscape:document-units="px"
     showgrid="false"
     inkscape:zoom="3.2866211"
     inkscape:cx="120.94488"
     inkscape:cy="120.94488"
     inkscape:window-width="1920"
     inkscape:window-height="991"
     inkscape:window-x="-9"
     inkscape:window-y="-9"
     inkscape:window-maximized="1"
     inkscape:current-layer="layer1" />
  <defs
     id="defs956" />
  <g
     inkscape:label="Layer 1"
     inkscape:groupmode="layer"
     id="layer1">
    <path
       id="path1042"
       style="fill:#ff6600;stroke-width:2;stroke-linecap:square;paint-order:markers stroke fill;stop-color:#000000"
       d="M 120.94531 4.1074219 A 116.83732 116.83732 0 0 0 4.1074219 120.94531 A 116.83732 116.83732 0 0 0 120.94531 237.78125 A 116.83732 116.83732 0 0 0 237.78125 120.94531 A 116.83732 116.83732 0 0 0 120.94531 4.1074219 z M 127.13867 13.083984 L 129.08008 14.1875 C 134.5279 17.286995 141.4633 22.792154 147.27734 28.630859 C 171.03239 52.486585 181.73898 85.406063 178.125 123.4707 C 177.49449 130.11159 177.64028 130.73831 180.21289 132.4707 C 184.23954 135.18223 190.32973 132.75041 198.36328 125.2207 C 200.58841 123.13511 202.53948 121.39563 202.69922 121.35547 C 203.03802 121.27032 203.54207 131.45285 203.51758 137.89258 C 203.46013 153.00867 200.86322 168.56643 196.4082 180.5 C 193.20936 189.06868 187.41679 198.95465 181.98242 205.12109 C 169.66859 219.0938 152.00578 227.41702 131.99023 228.67969 C 127.72111 228.94898 127.40414 228.8079 130.62695 228.06836 C 150.30016 223.554 162.58812 210.17447 163.29297 192.5 C 163.64242 183.73728 160.82658 172.72125 155.80078 163.19336 L 154.67188 161.05078 L 152.43555 162.84961 C 150.31484 164.55389 143.25764 168.25188 142.36914 168.125 C 142.14078 168.0925 142.00151 166.85102 142.06055 165.36523 C 142.33418 158.47807 140.94744 152.72877 136.70703 143.17773 C 133.01138 134.85367 132.65715 133.20142 133.42773 127.88672 C 133.94794 124.29878 134.33714 122.97338 135.63086 120.38281 C 136.49483 118.65269 137.12275 117.13301 137.02734 117.00586 C 136.72105 116.59769 131.90664 118.34617 127.28906 120.54102 C 115.16363 126.30451 105.18626 137.12925 99.701172 150.47266 C 97.913421 154.82163 95.578961 162.79649 95.087891 166.23633 C 94.814291 168.15259 94.597324 168.56722 93.552734 169.17188 C 92.046596 170.04366 91.156934 169.93185 89.326172 168.64258 C 87.947536 167.67172 84.943396 163.78378 83.794922 161.48242 C 83.489612 160.87051 83.149059 160.44086 83.037109 160.52734 C 82.467176 160.96747 79.469546 171.47477 78.576172 176.16406 C 75.780882 190.83664 78.314841 204.13172 85.685547 213.46484 C 89.468718 218.2553 94.375657 222.02934 100.48438 224.84766 C 103.66162 226.31352 101.73142 226.03558 96.335938 224.25 L 96.333984 224.25 C 63.331926 213.32778 41.091247 188.20435 38.595703 159.02734 C 36.975187 140.08085 44.195524 119.43304 59.302734 99.808594 C 61.65464 96.753556 70.189805 86.960561 72.078125 85.150391 C 72.680204 84.573185 73.098713 84.986104 76.630859 89.621094 C 80.336089 94.483218 84.630933 98.792856 89.492188 102.5293 C 90.711614 103.46648 91.79811 104.16703 91.90625 104.08594 C 92.013967 104.00453 92.569206 102.10934 93.140625 99.875 C 96.679858 86.035583 102.18154 76.16163 113.88867 62.628906 C 122.74678 52.389353 125.76458 47.875811 127.94141 41.621094 C 130.38416 34.601717 130.3058 25.900351 127.70508 15.376953 L 127.13867 13.083984 z "
       transform="scale(0.26458333)" />
  </g>
</svg>
