<?xml version="1.0" encoding="UTF-8" standalone="no"?>
<!-- Created with Inkscape (http://www.inkscape.org/) -->

<svg
   width="64mm"
   height="64mm"
   viewBox="0 0 64 64"
   version="1.1"
   id="svg959"
   inkscape:version="1.1.2 (b8e25be833, 2022-02-05)"
   sodipodi:docname="Castar.svg"
   xmlns:inkscape="http://www.inkscape.org/namespaces/inkscape"
   xmlns:sodipodi="http://sodipodi.sourceforge.net/DTD/sodipodi-0.dtd"
   xmlns="http://www.w3.org/2000/svg"
   xmlns:svg="http://www.w3.org/2000/svg">
  <sodipodi:namedview
     id="namedview961"
     pagecolor="#505050"
     bordercolor="#ffffff"
     borderopacity="1"
     inkscape:pageshadow="0"
     inkscape:pageopacity="0"
     inkscape:pagecheckerboard="1"
     inkscape:document-units="px"
     showgrid="false"
     inkscape:zoom="3.2866211"
     inkscape:cx="120.94488"
     inkscape:cy="120.94488"
     inkscape:window-width="1920"
     inkscape:window-height="991"
     inkscape:window-x="-9"
     inkscape:window-y="-9"
     inkscape:window-maximized="1"
     inkscape:current-layer="layer1" />
  <defs
     id="defs956" />
  <g
     inkscape:label="Layer 1"
     inkscape:groupmode="layer"
     id="layer1">
    <path
       id="path1042"
       style="fill:#ff6600;stroke-width:2;stroke-linecap:square;paint-order:markers stroke fill;stop-color:#000000"
       d="M 120.94531 4.1074219 A 116.83732 116.83732 0 0 0 4.1074219 120.94531 A 116.83732 116.83732 0 0 0 120.94531 237.78125 A 116.83732 116.83732 0 0 0 237.78125 120.94531 A 116.83732 116.83732 0 0 0 120.94531 4.1074219 z M 142.42773 32.757812 C 153.24766 32.674734 164.15773 34.60184 174.68164 38.552734 C 183.46523 41.850297 189.83762 45.516303 197.99414 51.96875 C 205.37473 57.807402 210.30055 62.94058 215.40234 70.105469 C 223.86172 81.985734 229.80312 97.985533 231.09961 112.38281 C 232.81827 131.4678 228.67104 149.79141 218.82812 166.59961 C 216.19451 171.09687 208.21094 181.03568 204.31641 184.66406 C 200.01387 188.67259 196.6646 191.35777 192.44336 194.1875 C 164.38086 212.99931 127.73108 214.14393 98.810547 197.10938 C 87.34501 190.35604 81.29803 184.24388 78.009766 176.08789 C 74.274723 166.82378 74.420369 157.61353 78.453125 148.04297 C 79.924231 144.55171 85.858087 137.1841 89.179688 134.72461 C 98.118157 128.10605 110.11498 126.0145 120.62305 129.24414 C 124.54646 130.45 127.35054 131.89841 132.16211 135.20508 C 138.48375 139.54953 143.12031 140.83525 149.6875 140.06445 C 156.07437 139.31486 160.62779 136.934 164.74219 132.19141 C 168.08046 128.34347 169.283 125.99834 170.33008 121.30273 C 171.42591 116.38852 170.89657 111.15393 168.8418 106.60742 C 166.69268 101.85225 165.52228 100.54804 157.31836 93.775391 L 150.13281 87.84375 L 142.5918 88.685547 C 138.44403 89.148426 134.46743 89.409171 133.75586 89.265625 C 131.1069 88.731162 129.2449 86.18768 129.4668 83.40625 C 129.68147 80.716247 132.07209 78.614055 135.26367 78.308594 C 136.08738 78.229602 136.84338 78.058569 136.94531 77.929688 C 137.04736 77.800806 136.10334 76.882121 134.8457 75.888672 C 132.79996 74.272697 132.52729 73.92823 132.25781 72.617188 C 131.49352 68.898699 133.62713 66.060789 137.42578 65.744141 C 138.61002 65.645495 139.07917 65.858412 141.42188 67.564453 C 142.88164 68.627483 144.148 69.404767 144.23633 69.292969 C 144.32477 69.181095 144.28526 68.275845 144.14844 67.279297 C 143.82378 64.917546 144.10993 63.520782 145.20312 62.136719 C 146.18134 60.898357 148.14744 60.105468 150.08789 60.166016 C 151.45445 60.208724 153.68003 61.7866 154.3125 63.160156 C 154.53474 63.642537 155.14317 67.500952 155.66406 71.736328 L 156.61133 79.4375 L 165.04102 86.269531 C 173.23511 92.910048 173.52474 93.178863 175.39258 95.882812 C 179.11341 101.26913 181.09109 106.62536 181.70508 112.97266 C 182.29204 119.04039 181.59205 123.97133 179.33594 129.64648 C 177.5712 134.08569 173.35705 139.82761 169.47461 143.08594 C 160.04934 150.99604 146.9908 153.3958 135.50391 149.32812 C 131.40357 147.87614 128.5435 146.36012 125.74219 144.15234 C 122.85176 141.87435 119.05381 140.09358 115.27734 139.24609 C 110.53884 138.18272 104.72727 138.85208 100.3457 140.9668 C 96.266497 142.93555 94.090086 144.64118 91.570312 147.8418 C 87.296536 153.27041 85.848084 158.4199 86.642578 165.34766 C 87.641394 174.05663 91.482205 179.43598 101.13867 185.64453 C 113.2897 193.45697 127.52796 197.81373 141.92773 198.12891 C 146.83012 198.23624 157.67364 196.96411 162.41797 195.72461 C 197.44637 186.57309 221.3608 154.96046 220.38867 119.0918 C 220.20196 112.19892 218.80703 103.71755 216.85547 97.609375 C 206.48531 65.15219 176.34414 43.377555 142.32227 43.763672 C 138.11561 43.811294 129.8583 44.797268 125.75195 45.742188 C 115.48925 48.103825 104.8233 53.171066 96.248047 59.759766 C 90.319744 64.314701 87.926035 66.763577 81.800781 74.529297 C 72.517883 86.298368 69.836289 90.798536 55.160156 119.25781 C 43.627343 141.62173 41.929762 144.4671 38.591797 147.01953 C 34.114718 150.44307 28.293629 152.14108 23.720703 151.35547 C 19.907764 150.70044 16.094529 148.52223 13.880859 145.73438 C 12.068878 143.45245 10.923932 140.484 10.539062 137.08008 C 9.8944641 131.37942 11.747541 125.63051 15.607422 121.36523 C 16.62763 120.23788 25.06694 112.7747 34.361328 104.7793 C 59.40792 83.23323 61.401297 81.321841 72.398438 68.273438 C 81.370658 57.627642 85.207861 53.943325 92.933594 48.558594 C 97.663446 45.261939 100.87014 43.443067 106.67969 40.761719 C 118.01821 35.528475 130.16515 32.851968 142.42773 32.757812 z "
       transform="scale(0.26458333)" />
  </g>
</svg>
