<?xml version="1.0" encoding="UTF-8" standalone="no"?>
<!-- Created with Inkscape (http://www.inkscape.org/) -->

<svg
   width="64mm"
   height="64mm"
   viewBox="0 0 64 64"
   version="1.1"
   id="svg959"
   inkscape:version="1.1.2 (b8e25be833, 2022-02-05)"
   sodipodi:docname="Cernadar.svg"
   xmlns:inkscape="http://www.inkscape.org/namespaces/inkscape"
   xmlns:sodipodi="http://sodipodi.sourceforge.net/DTD/sodipodi-0.dtd"
   xmlns="http://www.w3.org/2000/svg"
   xmlns:svg="http://www.w3.org/2000/svg">
  <sodipodi:namedview
     id="namedview961"
     pagecolor="#505050"
     bordercolor="#ffffff"
     borderopacity="1"
     inkscape:pageshadow="0"
     inkscape:pageopacity="0"
     inkscape:pagecheckerboard="1"
     inkscape:document-units="px"
     showgrid="false"
     inkscape:zoom="3.2866211"
     inkscape:cx="120.94488"
     inkscape:cy="120.94488"
     inkscape:window-width="1920"
     inkscape:window-height="991"
     inkscape:window-x="-9"
     inkscape:window-y="-9"
     inkscape:window-maximized="1"
     inkscape:current-layer="layer1" />
  <defs
     id="defs956" />
  <g
     inkscape:label="Layer 1"
     inkscape:groupmode="layer"
     id="layer1">
    <path
       id="path1042"
       style="fill:#ff6600;stroke-width:2;stroke-linecap:square;paint-order:markers stroke fill;stop-color:#000000"
       d="M 120.94531 4.1074219 A 116.83732 116.83732 0 0 0 4.1074219 120.94531 A 116.83732 116.83732 0 0 0 120.94531 237.78125 A 116.83732 116.83732 0 0 0 237.78125 120.94531 A 116.83732 116.83732 0 0 0 120.94531 4.1074219 z M 138.04688 30.904297 C 138.0836 30.906301 138.10867 30.913148 138.12305 30.927734 C 138.23919 31.043596 137.95312 32.684045 137.48828 34.570312 C 134.66626 46.021753 139.75871 55.169649 144.0293 46.320312 C 145.67082 42.91873 149.2106 38.954809 150.59961 38.964844 C 151.41153 38.970891 151.38295 39.278049 150.36133 41.542969 C 149.72349 42.957151 149.03335 45.782459 148.82812 47.820312 C 148.24599 53.601542 149.58808 55.853369 156.67383 60.990234 C 159.79558 63.253408 162.88144 65.864362 163.53125 66.791016 C 164.58154 68.288979 165.05374 68.47834 167.77539 68.498047 C 169.62657 68.511653 171.09039 68.217012 171.48047 67.753906 C 172.84446 66.134333 174.02373 61.75656 174.0625 58.164062 C 174.11587 53.201339 172.81473 50.107511 169.33984 46.9375 C 167.79977 45.532536 166.53965 44.22844 166.54102 44.039062 C 166.54222 43.849595 167.41678 43.701312 168.48242 43.708984 C 170.45234 43.723347 173.21314 45.304214 176.76562 48.455078 C 178.84663 50.300795 180.60207 50.617795 181.14062 49.244141 C 181.73386 47.731094 180.42463 43.117046 178.31055 39.267578 C 177.20463 37.253375 176.45937 35.448054 176.6543 35.255859 C 176.84966 35.063682 177.71635 35.155258 178.58008 35.458984 C 179.71151 35.856836 180.70696 37.101488 182.14062 39.914062 C 183.23518 42.061069 184.39101 43.736827 184.70898 43.636719 C 185.02688 43.536486 185.5358 42.496355 185.83984 41.326172 C 187.06705 36.602496 188.75313 41.453677 188.23438 48.214844 C 187.81526 53.677448 186.07648 57.162317 181.64062 61.429688 C 175.86732 66.983737 174.02053 70.215261 175.66602 71.884766 C 176.18062 72.406609 176.99787 71.959115 179.15039 69.974609 C 182.10255 67.252979 185.96565 65.202633 188.15625 65.197266 C 189.25975 65.194355 189.45183 65.500455 189.43945 67.236328 C 189.42131 69.769284 187.62454 73.326128 185.55273 74.931641 C 184.69189 75.598833 182.85767 76.420792 181.47656 76.757812 L 178.96484 77.369141 L 183.26367 79.927734 C 187.7085 82.573067 188.74361 83.741899 188.72656 86.097656 C 188.70729 88.725573 184.387 91.295896 178.81445 91.994141 C 173.54849 92.653914 173.50208 92.755237 172.94141 105.22461 C 172.67238 111.20714 172.20096 116.8855 171.89453 117.84375 C 170.98331 120.69319 168.80391 124.59061 166.94727 126.6875 C 164.72714 129.19502 163.79395 131.41485 163.02344 136.02344 C 162.68347 138.05697 161.74108 141.3212 160.92969 143.27734 C 160.11829 145.23341 159.44735 147.94908 159.4375 149.3125 C 159.41558 152.33346 163.85251 173.00824 165.9043 179.44531 C 169.06067 189.34762 173.14553 199.21818 175.32812 202.21484 C 177.63637 205.38375 179.18885 208.57257 179.17773 210.12109 C 179.17282 210.78306 178.52349 211.00039 176.58789 210.98633 C 174.12921 210.96856 173.94577 210.84904 172.77539 208.50781 C 172.10017 207.15456 170.71365 205.05769 169.69531 203.84766 C 168.67704 202.6377 167.51605 200.42383 167.11719 198.92773 C 166.15777 195.32943 161.81176 184.96769 158.08984 177.4082 C 155.12289 171.38204 150.23489 163.18801 149.8457 163.58789 C 149.7344 163.70218 148.68151 167.47943 147.50781 171.98047 C 145.4635 179.8201 145.37234 180.58202 145.30859 190.12695 C 145.24476 199.5349 145.32026 200.26398 146.6582 203.19336 C 147.43731 204.8999 148.23079 207.32282 148.42188 208.57617 L 148.76953 210.85352 L 145.99805 210.6543 C 143.48146 210.47348 143.18003 210.29668 142.7168 208.72266 C 142.4362 207.76916 141.72324 205.78534 141.13281 204.31445 C 140.1821 201.94631 140.07483 200.13088 140.19336 188.45117 C 140.30671 177.28808 140.15033 174.37364 139.18164 169.48633 C 138.55213 166.31034 137.75042 161.2125 137.39844 158.1582 L 136.75781 152.60547 L 133.28906 152.21875 C 131.17346 151.98211 128.86557 151.26036 127.37305 150.37109 C 125.16578 149.05599 124.30566 148.90848 118.60352 148.86719 C 115.06253 148.84149 110.32977 148.40358 107.8457 147.87109 C 100.49651 146.29564 99.048919 147.02436 94.183594 154.74609 C 92.791159 156.95604 90.175566 160.82951 88.369141 163.35352 C 86.562659 165.87756 84.721906 168.92822 84.279297 170.13477 C 83.547849 172.12887 83.592939 172.68037 84.783203 176.19336 C 86.62892 181.64081 94.659439 197.83226 97.591797 202.01953 C 100.21397 205.76374 101.91914 208.85217 101.91211 209.83984 C 101.90963 210.1783 100.68923 210.43765 99.140625 210.42578 C 96.434498 210.40613 96.344529 210.34666 95.140625 207.82227 C 94.463062 206.40214 93.04594 204.25178 91.990234 203.04297 C 90.934567 201.83421 87.683937 196.28785 84.767578 190.7168 C 81.851268 185.14563 78.082401 178.41163 76.392578 175.75391 L 73.320312 170.92188 L 75.041016 166.51953 C 75.986842 164.09764 76.961004 161.20784 77.205078 160.09961 L 77.648438 158.08594 L 75.066406 160.37305 C 73.646321 161.6312 70.975333 163.91951 69.130859 165.45703 C 65.093277 168.82269 64.023456 171.04125 62.722656 178.75977 C 60.138733 194.09241 59.92057 199.04252 61.582031 204.48047 C 63.259575 209.97122 63.201291 210.16466 59.882812 210.14062 C 57.078845 210.12059 57.061365 210.10912 56.691406 207.95508 C 56.486934 206.76432 55.921432 204.46895 55.435547 202.85352 C 54.613719 200.12113 54.643186 199.21507 55.853516 189.85742 C 57.300224 178.67211 57.52958 171.87363 56.609375 167.42578 L 55.996094 164.45898 L 59.740234 160.875 C 64.320137 156.49229 66.927359 152.84486 68.396484 148.75977 C 69.792846 144.87714 69.799045 143.83076 68.445312 142.08398 C 67.851061 141.31707 66.461839 139.16043 65.353516 137.29297 L 63.339844 133.89648 L 62.640625 136.41992 C 61.69114 139.84991 60.626147 141.75753 58.142578 144.4668 C 56.21802 146.56631 52.943522 148.76136 52.462891 148.27344 C 52.353851 148.16247 53.019405 146.9638 53.943359 145.60938 C 56.462222 141.91697 57.163455 137.75786 56.400391 131.05078 C 55.87267 126.41206 55.918242 124.81001 56.677734 121.29492 C 58.900221 111.00949 67.050042 103.72002 78.722656 101.57422 C 84.942444 100.43085 89.31679 100.57335 101.88281 102.32812 C 113.37773 103.93337 123.05274 104.30502 129.08398 103.37109 C 131.07944 103.06208 135.51613 102.73507 138.94336 102.64453 C 146.12934 102.45453 147.47028 101.95056 151.0957 98.074219 C 154.86195 94.047242 155.96877 91.092075 156.4082 83.894531 L 156.7832 77.751953 L 154.04492 77.369141 C 150.39516 76.858851 147.71307 74.445176 146.19727 70.302734 C 145.55986 68.561166 145.04325 66.503477 145.04883 65.730469 C 145.05828 64.457992 145.23702 64.360389 146.93164 64.6875 C 149.88272 65.256814 152.05083 66.459382 155.26953 69.316406 C 157.47538 71.274455 158.56117 71.874482 159.41797 71.609375 C 163.10565 70.468309 157.73559 66.019939 145.18945 59.822266 C 130.7292 52.678955 126.73277 49.685096 123.14258 43.306641 C 121.56288 40.500322 120.19006 36.522113 120.64648 36.072266 C 121.09355 35.631658 124.54363 37.575081 126.70117 39.482422 C 129.10479 41.607314 130.87708 41.475847 131.62891 39.117188 C 132.90831 35.103483 134.52158 32.439976 136.18359 31.595703 C 137.01678 31.173064 137.78978 30.890266 138.04688 30.904297 z "
       transform="scale(0.26458333)" />
  </g>
</svg>
