<?xml version="1.0" encoding="UTF-8" standalone="no"?>
<!-- Created with Inkscape (http://www.inkscape.org/) -->

<svg
   viewBox="0 0 64 64"
   version="1.1"
   id="svg959"
   inkscape:version="1.1.2 (b8e25be833, 2022-02-05)"
   sodipodi:docname="Granadar.svg"
   xmlns:inkscape="http://www.inkscape.org/namespaces/inkscape"
   xmlns:sodipodi="http://sodipodi.sourceforge.net/DTD/sodipodi-0.dtd"
   xmlns="http://www.w3.org/2000/svg"
   xmlns:svg="http://www.w3.org/2000/svg">
  <sodipodi:namedview
     id="namedview961"
     pagecolor="#505050"
     bordercolor="#ffffff"
     borderopacity="1"
     inkscape:pageshadow="0"
     inkscape:pageopacity="0"
     inkscape:pagecheckerboard="1"
     inkscape:document-units="px"
     showgrid="false"
     inkscape:zoom="3.2866211"
     inkscape:cx="120.94488"
     inkscape:cy="120.94488"
     inkscape:window-width="1920"
     inkscape:window-height="991"
     inkscape:window-x="-9"
     inkscape:window-y="-9"
     inkscape:window-maximized="1"
     inkscape:current-layer="layer1" />
  <defs
     id="defs956" />
  <g
     inkscape:label="Layer 1"
     inkscape:groupmode="layer"
     id="layer1">
    <path
       id="path1042"
       style="fill:#ff6600;stroke-width:2;stroke-linecap:square;paint-order:markers stroke fill;stop-color:#000000"
       d="M 120.94531 4.1074219 A 116.83732 116.83732 0 0 0 4.1074219 120.94531 A 116.83732 116.83732 0 0 0 120.94531 237.78125 A 116.83732 116.83732 0 0 0 237.78125 120.94531 A 116.83732 116.83732 0 0 0 120.94531 4.1074219 z M 179.35742 27.576172 C 179.98725 27.581581 180.39439 27.655612 180.42383 27.804688 C 180.45217 27.948321 179.7938 28.632149 178.96094 29.324219 C 178.12807 30.016292 175.92823 32.096812 174.07227 33.947266 C 172.21629 35.797753 170.67349 37.304014 170.64453 37.294922 C 170.61581 37.285889 169.02545 36.587286 167.11133 35.742188 L 163.63086 34.205078 L 166.08789 32.378906 C 169.14509 30.105072 172.07388 28.69738 175.03711 28.080078 C 176.63425 27.747361 178.30771 27.567157 179.35742 27.576172 z M 184.25586 29.056641 L 185.35156 29.791016 L 186.44727 30.525391 L 185.64453 32.431641 C 183.94616 36.468016 180.80775 43.235532 180.61914 43.267578 C 180.51037 43.286098 178.90431 42.301776 177.04883 41.080078 L 173.67383 38.859375 L 177.19141 35.384766 C 179.12554 33.473583 181.50656 31.26709 182.48242 30.482422 L 184.25586 29.056641 z M 188.79492 34.3125 C 188.87466 34.317251 188.94071 34.387018 189.00195 34.505859 C 189.70181 35.864067 190.5333 40.751521 190.49805 43.298828 C 190.4584 46.165842 189.98296 50.340694 189.66211 50.638672 C 189.54423 50.748392 188.06452 49.622799 186.375 48.136719 L 183.30273 45.433594 L 185.96289 39.601562 C 187.82196 35.524231 188.44941 34.291911 188.79492 34.3125 z M 160.89648 36.669922 L 163.74805 37.802734 C 165.31615 38.426213 167.00337 39.14189 167.49805 39.392578 L 168.39648 39.847656 L 165.69922 43.050781 C 164.21552 44.811935 162.84626 46.392538 162.65625 46.564453 C 162.4664 46.736308 161.6118 46.51318 160.75781 46.068359 C 159.90382 45.623528 158.18698 44.824722 156.94336 44.292969 C 155.69974 43.761178 154.65606 43.188778 154.62305 43.021484 C 154.59016 42.854165 155.98884 41.356801 157.73047 39.693359 L 160.89648 36.669922 z M 171.30273 41.503906 L 172.36133 41.992188 C 172.94338 42.260874 174.70633 43.356801 176.2793 44.427734 C 178.88502 46.201792 179.10843 46.442891 178.79297 47.130859 C 177.64351 49.637835 175.11426 54.440208 174.92969 54.466797 C 174.80939 54.484183 172.60449 53.122355 170.0293 51.441406 C 167.45413 49.760465 165.38933 48.331317 165.44141 48.265625 C 165.49285 48.199748 166.83417 46.652942 168.41992 44.826172 L 171.30273 41.503906 z M 151.8418 45.714844 C 152.10145 45.663442 159.2712 48.791219 160.1875 49.355469 C 160.29661 49.4235 160.10344 49.805532 159.75586 50.207031 C 159.4086 50.608655 157.95702 52.425254 156.53125 54.244141 C 155.10545 56.063019 153.81096 57.41477 153.6543 57.246094 C 153.49775 57.0773 151.55904 56.131913 149.3457 55.146484 C 147.13241 54.161029 145.17972 53.277198 145.00586 53.181641 C 144.68022 53.002529 151.24421 45.832825 151.8418 45.714844 z M 181.75586 48.623047 C 182.35509 48.655092 188.52886 54.274357 188.66016 54.939453 C 188.7862 55.577067 186.16436 64.141697 185.82227 64.208984 C 185.69361 64.234307 184.24447 62.940427 182.60156 61.333984 C 180.95866 59.727541 179.15022 58.01901 178.58203 57.537109 L 177.54883 56.662109 L 179.54492 52.779297 C 180.64273 50.644355 181.62055 48.780295 181.7168 48.636719 C 181.72414 48.625769 181.73653 48.622013 181.75586 48.623047 z M 163.1875 51.080078 L 165.0332 52.107422 C 166.04895 52.672257 168.35737 54.137626 170.16211 55.363281 L 173.44336 57.589844 L 171.11523 61.771484 C 169.83495 64.0709 168.69519 66.003281 168.58203 66.066406 C 168.4688 66.129676 165.82991 64.522598 162.7168 62.494141 L 157.05664 58.804688 L 160.12109 54.943359 L 163.1875 51.080078 z M 142.52539 55.552734 L 147.04492 57.615234 C 149.53126 58.749837 151.64618 59.819758 151.74414 59.992188 C 151.92359 60.308118 146.71761 67.611822 146.25195 67.697266 C 146.11419 67.722588 145.20667 67.332442 144.23438 66.830078 C 143.26198 66.328032 141.00414 65.296511 139.2168 64.537109 L 135.9668 63.15625 L 138.05273 60.628906 C 139.19995 59.239597 140.67568 57.529787 141.33203 56.828125 L 142.52539 55.552734 z M 175.9668 59.648438 L 177.28516 60.751953 C 179.40329 62.521861 184.32403 67.618481 184.41406 68.136719 C 184.45938 68.397997 183.64039 70.695553 182.5957 73.242188 L 180.69727 77.873047 L 178.25781 75.123047 C 176.91605 73.610665 174.76985 71.445738 173.49023 70.3125 L 171.16406 68.251953 L 173.56445 63.951172 L 175.9668 59.648438 z M 155.03906 61.556641 L 157.35352 62.853516 C 158.62646 63.567631 161.31587 65.255033 163.33008 66.603516 L 166.99219 69.056641 L 165.66406 71.363281 C 164.93351 72.632753 163.73958 74.615441 163.00977 75.769531 L 161.68164 77.869141 L 155.54102 73.662109 C 152.1634 71.348509 149.39197 69.417506 149.38281 69.371094 C 149.36505 69.281065 151.46833 66.34827 153.6875 63.369141 L 155.03906 61.556641 z M 134.07617 66.087891 C 134.66401 66.144154 135.71883 66.560772 137.92773 67.515625 C 140.15715 68.479389 142.52656 69.569151 143.19336 69.9375 L 144.40625 70.607422 L 141.16797 75.181641 C 139.3872 77.696792 137.8518 79.765705 137.75586 79.78125 C 137.65986 79.797124 135.94004 78.888456 133.93359 77.761719 C 131.92708 76.635102 129.60438 75.361267 128.77148 74.931641 L 127.25781 74.150391 L 130.06641 70.53125 C 131.61153 68.540645 133.10025 66.653716 133.375 66.337891 C 133.53837 66.150158 133.72347 66.054132 134.07617 66.087891 z M 169.61328 71.369141 C 170.11225 71.270684 174.66384 75.778079 176.97266 78.65625 L 179.16016 81.382812 L 177.16797 85.537109 C 176.07295 87.822454 175.08588 89.715892 174.97266 89.744141 C 174.8595 89.772487 173.5914 88.609541 172.15625 87.160156 C 170.72107 85.710726 168.3831 83.505128 166.95898 82.257812 L 164.36914 79.988281 L 166.84375 75.708984 C 168.20485 73.354751 169.45101 71.401157 169.61328 71.369141 z M 147.24219 72.257812 L 148.23633 72.710938 C 149.59952 73.331415 159.83373 80.358374 159.9043 80.722656 C 159.96375 81.029516 154.65127 89.919854 154.26953 90.152344 C 154.14908 90.225629 153.01404 89.550386 151.74805 88.652344 C 150.48205 87.754441 147.46494 85.767479 145.04297 84.236328 L 140.64062 81.451172 L 143.94141 76.855469 L 147.24219 72.257812 z M 125.32617 76.873047 C 125.67132 76.804902 135.74361 82.3548 135.80078 82.644531 C 135.88582 83.075862 131.00735 90.152791 130.56445 90.240234 C 130.34123 90.284455 130.03656 90.190229 129.88867 90.029297 L 129.88867 90.03125 C 129.58635 89.705681 122.34749 85.891593 120.83203 85.259766 L 119.85547 84.853516 L 122.48438 80.882812 C 123.93074 78.699648 125.20945 76.896106 125.32617 76.873047 z M 44.769531 77.617188 C 47.956416 77.595614 53.432605 77.847405 56.333984 78.205078 C 78.03364 80.879854 92.383812 92.46388 97.773438 111.65625 L 98.539062 114.38477 L 96.330078 118.96094 C 95.115115 121.4781 94.092595 123.58477 94.056641 123.64062 C 94.022247 123.69694 93.309891 122.14052 92.478516 120.18359 C 90.382223 115.24926 87.606305 110.46808 84.263672 106.04102 C 81.296149 102.11077 77.59028 98.124725 76.085938 97.244141 C 74.810755 96.497699 73.154393 96.929976 72.4375 98.195312 C 71.891619 99.158899 71.926668 99.691822 72.939453 105.80664 C 74.069226 112.62767 74.2392 116.56248 73.615234 121.47461 C 73.3196 123.80195 72.859536 124.4238 71.984375 123.67773 C 71.748721 123.47693 71.045829 121.22634 70.423828 118.67578 C 69.801831 116.12522 68.680399 112.59965 67.931641 110.8418 C 63.837237 101.2292 55.326687 89.984582 45.138672 80.730469 C 42.96146 78.75282 42.139845 77.81244 42.525391 77.736328 C 42.89897 77.66258 43.707236 77.624379 44.769531 77.617188 z M 162.71484 82.759766 L 165.58594 85.369141 C 167.16513 86.8049 169.5875 89.123483 170.96875 90.519531 L 173.48047 93.056641 L 172.29492 95.207031 C 171.6431 96.389827 170.55868 98.357888 169.88477 99.580078 C 169.21087 100.80224 168.55006 101.82313 168.41602 101.84961 C 168.28177 101.87607 167.03796 100.83181 165.65039 99.527344 C 164.26279 98.222874 161.78654 96.085068 160.14844 94.777344 C 158.51034 93.46962 157.14354 92.266651 157.11133 92.103516 C 157.06174 91.851761 158.67975 89.130843 161.97852 83.921875 L 162.71484 82.759766 z M 138.88672 84.205078 L 144.83594 87.90625 C 148.10769 89.942743 151.13658 91.971197 151.56836 92.412109 C 152.33739 93.197382 152.33945 93.238479 151.59375 94.496094 C 150.1051 97.006059 147.25102 101.34859 147.07031 101.37891 C 146.96936 101.39591 145.26634 100.17335 143.28516 98.664062 C 141.30398 97.154769 138.30165 95.077948 136.61328 94.048828 L 133.54297 92.177734 L 136.21484 88.191406 L 138.88672 84.205078 z M 118.12891 87.654297 C 118.44994 87.590763 125.83585 91.301678 127.56055 92.392578 L 128.90625 93.242188 L 126.05664 97.507812 C 124.48989 99.853992 123.02887 101.80849 122.81055 101.85156 C 122.59224 101.8945 122.15348 101.71714 121.83398 101.45703 C 121.5145 101.19689 119.20902 99.921855 116.71094 98.623047 L 112.16797 96.261719 L 115.02734 91.982422 C 116.5992 89.628627 117.99466 87.680825 118.12891 87.654297 z M 131.67969 94.957031 L 133.78906 96.123047 C 135.98996 97.338048 145.02849 103.81891 145.0957 104.23047 C 145.11687 104.3603 143.87306 106.47445 142.33203 108.92773 L 139.5293 113.38672 L 135.50391 110.31641 C 133.28919 108.62717 130.19832 106.45743 128.63477 105.49414 L 125.79102 103.74219 L 128.73438 99.349609 L 131.67969 94.957031 z M 155.17773 95.103516 C 155.84556 94.97161 166.29348 104.16128 166.49609 105.05859 C 166.59085 105.47867 161.98382 113.60931 161.46484 113.9375 C 161.34715 114.01199 159.81275 112.69451 158.05664 111.00977 C 156.30049 109.32504 153.70779 106.96972 152.29492 105.77539 L 149.72656 103.60352 L 152.33398 99.376953 C 153.76837 97.052064 155.04909 95.128903 155.17773 95.103516 z M 110.62891 99.21875 C 111.09711 99.129515 121.04115 104.53862 121.11719 104.92383 C 121.16303 105.15559 115.43031 114.20919 115.08203 114.45508 C 114.97972 114.52723 113.34124 113.71548 111.44141 112.65234 C 109.54162 111.58919 107.28386 110.35799 106.42383 109.91602 L 104.85938 109.11133 L 107.6582 104.18164 C 109.197 101.46983 110.53346 99.23693 110.62891 99.21875 z M 75.447266 100.99414 L 76.447266 101.8418 C 79.741513 104.63206 85.210379 112.41513 88.183594 118.54688 C 91.174428 124.71498 92.497175 128.81993 94.037109 136.69531 C 96.151494 147.50834 96.117758 152.53639 93.871094 161.03125 C 91.743692 169.07469 88.169382 176.6526 82.193359 185.78711 C 78.708287 191.11422 72.490615 199.294 71.855469 199.38672 C 71.68539 199.41166 70.42352 198.8097 69.052734 198.04883 C 66.164453 196.44536 64.255365 194.90394 62.705078 192.92773 C 58.102267 187.06039 56.628923 177.1984 58.830078 166.97852 C 60.102089 161.0725 61.794989 157.11276 67.490234 146.7168 C 76.492276 130.28688 78.572565 120.83383 76.324219 106.55469 L 75.447266 100.99414 z M 147.87891 106.22656 L 150.75586 108.70703 C 152.33836 110.07095 154.9661 112.47936 156.59375 114.05859 L 159.55273 116.92969 L 158.48828 118.8457 C 157.90233 119.89995 156.47666 122.15182 155.32227 123.84961 L 153.22461 126.9375 L 152.375 125.92383 C 150.52352 123.71322 145.75874 118.79328 143.83008 117.10156 L 141.79102 115.3125 L 144.83398 110.76953 L 147.87891 106.22656 z M 124.17969 106.60547 L 125.94727 107.60156 C 128.30845 108.93176 137.2647 115.5944 137.36328 116.09375 C 137.40622 116.31096 135.94732 118.56187 134.12109 121.09766 L 130.80078 125.70898 L 129.1582 124.38867 C 128.25418 123.66205 125.3604 121.59185 122.72852 119.78906 L 117.94336 116.51172 L 118.45117 115.41211 C 118.73044 114.80793 120.13453 112.58081 121.57031 110.46094 L 124.17969 106.60547 z M 103.4375 112.1582 C 103.90578 112.06583 112.90166 117.1105 112.98047 117.50977 C 113.05277 117.87578 108.35249 125.85932 107.99219 125.98242 C 107.89936 126.01417 106.3576 125.2392 104.56641 124.25977 C 102.7752 123.28046 100.73581 122.1884 100.0332 121.83203 L 98.755859 121.18359 L 100.96484 116.69727 C 102.18054 114.22949 103.29375 112.18657 103.4375 112.1582 z M 164.1543 116.32812 L 168.77344 117.56641 C 182.44039 121.22786 191.99308 129.28836 197.35352 141.68359 C 198.92978 145.32842 200.7428 154.4534 200.86133 159.33594 C 200.90895 161.29705 200.9071 162.96113 200.85742 163.03516 C 200.80704 163.10905 199.94437 161.66796 198.9375 159.83203 C 192.81267 148.66381 184.84867 141.87742 174.99609 139.43164 C 169.85152 138.15441 166.26508 138.13463 160.13867 139.34961 C 156.00243 140.16991 154.26552 140.68067 151.63086 141.84961 C 149.81008 142.65742 148.02269 143.44939 147.6582 143.60938 C 147.29367 143.76921 146.75673 143.80164 146.46484 143.68164 C 146.0694 143.51912 148.25449 140.00626 155.04297 129.89648 L 164.1543 116.32812 z M 139.95703 118.08984 L 141.0293 118.95898 C 142.71715 120.32766 147.63051 125.33463 149.56445 127.65625 L 151.32422 129.76953 L 149.41602 132.66211 C 148.36606 134.25363 146.90367 136.31232 146.16602 137.23633 L 144.82422 138.91602 L 142.45117 136.41211 C 141.14542 135.03499 138.58523 132.52638 136.76172 130.83594 L 133.44531 127.76172 L 136.70117 122.92578 L 139.95703 118.08984 z M 116.12305 119.37695 C 116.44136 119.31081 122.67938 123.52459 126.28516 126.24219 L 129.10352 128.36719 L 127.88477 130.24023 C 127.21429 131.27107 125.95175 133.01748 125.08008 134.11914 L 123.49609 136.12109 L 117.16211 131.8418 L 110.82812 127.5625 L 113.35352 123.49609 C 114.74281 121.25881 115.98844 119.4048 116.12305 119.37695 z M 59.199219 123.73047 C 59.690955 123.74131 60.154539 123.77223 60.580078 123.82812 C 64.912539 124.39717 71.530881 126.51463 72.173828 127.53711 C 72.738357 128.43493 70.182153 134.8258 66.480469 141.76562 C 62.977973 148.332 63.353822 147.77069 63.136719 146.74219 C 62.830445 145.291 61.160906 142.071 59.625 139.9668 C 57.712767 137.34704 54.06602 134.79751 51.09375 134.00195 C 48.629815 133.34232 44.609534 133.14885 42.363281 133.58203 L 40.994141 133.8457 L 41.939453 132.35156 C 43.245299 130.28914 46.477258 127.19974 48.597656 125.98633 C 50.963146 124.63262 55.757062 123.65459 59.199219 123.73047 z M 97.474609 124.12891 L 101.73633 126.38477 C 104.08004 127.62571 106.02068 128.7579 106.04883 128.90039 C 106.0768 129.04284 105.22996 130.61274 104.16797 132.38867 C 103.10591 134.16462 102.15085 135.76471 102.04492 135.94336 C 101.93902 136.12213 100.75206 135.65661 99.408203 134.91016 L 96.964844 133.55273 L 96.216797 131.03125 C 95.423493 128.35664 95.429224 128.31928 97.035156 125.0293 L 97.474609 124.12891 z M 108.99805 130.5293 L 110.44336 131.27148 C 111.2376 131.68003 114.10941 133.55228 116.82617 135.43164 L 121.76562 138.84766 L 121 140.04688 C 120.39983 140.98534 119.95964 141.28401 118.98242 141.41797 C 118.29544 141.51223 116.22457 141.83483 114.37891 142.13477 L 111.02148 142.67969 L 107.79492 140.29102 L 104.56836 137.90039 L 106.7832 134.21484 L 108.99805 130.5293 z M 131.91016 130.86133 C 131.93141 130.85616 131.94924 130.85816 131.96094 130.86719 C 134.48926 132.81693 142.64073 140.99493 142.78516 141.72656 C 142.91026 142.3603 142.41528 142.34964 138.85938 141.63672 L 138.85938 141.63477 C 137.13706 141.28939 134.14876 140.92605 132.21875 140.82617 C 129.25367 140.67269 128.52752 140.49952 127.54297 139.70898 C 126.90208 139.19445 126.3405 138.59853 126.29297 138.38477 C 126.1624 137.79724 131.25142 131.02166 131.91016 130.86133 z M 97.884766 137.84375 C 97.905553 137.79858 98.458452 138.04439 99.113281 138.38867 L 100.30469 139.01758 L 99.279297 140.56641 L 98.253906 142.11523 L 98.050781 140.01953 C 97.939058 138.86735 97.863751 137.88863 97.884766 137.84375 z M 102.88672 140.76367 L 105.04688 142.23047 L 107.20508 143.69922 L 103.99609 144.75195 C 100.1542 146.01316 99.978668 146.05214 100.05078 145.63867 C 100.08026 145.46054 100.73169 144.29285 101.49609 143.04102 L 102.88672 140.76367 z M 128.02539 143.91797 C 143.83177 143.70883 155.32939 149.4935 162.29492 161.16211 C 163.95615 163.94501 166.12204 168.75148 166.43945 170.35938 C 166.54698 170.90347 166.05337 170.72771 164.02148 169.50391 C 155.87188 164.595 147.86685 163.19383 141.2832 165.52344 C 133.27576 168.35683 126.07881 174.63697 112.45508 190.67773 C 104.24404 200.34555 96.227815 204.87548 87.539062 204.75586 L 87.539062 204.75391 C 83.753329 204.70179 79.405513 203.65883 75.908203 201.96289 L 74.607422 201.33203 L 77.021484 198.47656 C 80.166607 194.75526 88.157868 182.80628 90.410156 178.45703 C 94.666532 170.23784 97.550179 161.54933 98.441406 154.25977 L 98.96875 149.94336 L 101.42969 149.00781 C 107.55537 146.67953 119.83801 144.20318 126.48242 143.95703 C 127.00127 143.93781 127.51551 143.92472 128.02539 143.91797 z M 59.619141 194.37109 C 59.670717 194.38755 59.716846 194.42159 59.763672 194.4707 C 60.01331 194.73274 60.963462 195.73036 61.873047 196.6875 C 62.851748 197.71741 65.420635 199.56056 68.166016 201.20508 C 74.198478 204.81862 76.356925 205.85891 79.857422 206.83008 L 82.738281 207.62891 L 80.763672 210.92969 C 79.677009 212.74528 78.606733 214.26763 78.386719 214.3125 C 78.166788 214.3574 72.995218 211.55205 66.894531 208.07812 C 60.793841 204.60419 55.638185 201.66125 55.4375 201.53906 C 55.233481 201.41498 56.008641 199.70253 57.191406 197.65625 C 58.720683 195.01311 59.258103 194.25588 59.619141 194.37109 z "
       transform="scale(0.26458333)" />
  </g>
</svg>
