<?xml version="1.0" encoding="UTF-8" standalone="no"?>
<!-- Created with Inkscape (http://www.inkscape.org/) -->

<svg
   viewBox="0 0 64 64"
   version="1.1"
   id="svg959"
   inkscape:version="1.1.2 (b8e25be833, 2022-02-05)"
   sodipodi:docname="Keldar.svg"
   xmlns:inkscape="http://www.inkscape.org/namespaces/inkscape"
   xmlns:sodipodi="http://sodipodi.sourceforge.net/DTD/sodipodi-0.dtd"
   xmlns="http://www.w3.org/2000/svg"
   xmlns:svg="http://www.w3.org/2000/svg">
  <sodipodi:namedview
     id="namedview961"
     pagecolor="#505050"
     bordercolor="#ffffff"
     borderopacity="1"
     inkscape:pageshadow="0"
     inkscape:pageopacity="0"
     inkscape:pagecheckerboard="1"
     inkscape:document-units="px"
     showgrid="false"
     inkscape:zoom="3.2866211"
     inkscape:cx="120.94488"
     inkscape:cy="120.94488"
     inkscape:window-width="1920"
     inkscape:window-height="991"
     inkscape:window-x="-9"
     inkscape:window-y="-9"
     inkscape:window-maximized="1"
     inkscape:current-layer="layer1" />
  <defs
     id="defs956" />
  <g
     inkscape:label="Layer 1"
     inkscape:groupmode="layer"
     id="layer1">
    <path
       id="path1042"
       style="fill:#ff6600;stroke-width:2;stroke-linecap:square;paint-order:markers stroke fill;stop-color:#000000"
       d="M 120.94531 4.1074219 A 116.83732 116.83732 0 0 0 4.1074219 120.94531 A 116.83732 116.83732 0 0 0 120.94531 237.78125 A 116.83732 116.83732 0 0 0 237.78125 120.94531 A 116.83732 116.83732 0 0 0 120.94531 4.1074219 z M 108.26562 24.908203 C 109.44236 24.9331 110.57365 25.136199 111.54883 25.533203 C 114.34757 26.67258 118.58226 31.931008 118.78711 34.519531 C 118.87631 35.652218 119.53693 40.547603 120.25391 45.398438 L 121.55859 54.216797 L 123.41016 51.947266 C 128.51411 45.692223 128.71385 45.559629 132.73633 45.767578 C 135.89473 45.930854 136.96537 46.44391 138.57031 48.558594 C 141.80895 52.825454 140.91646 55.557672 132.53906 67.017578 L 125.16797 77.101562 L 126.8457 88.521484 C 127.76787 94.802568 128.7022 100.16953 128.92383 100.44922 C 129.14569 100.7289 133.33047 97.737273 138.22266 93.800781 L 147.11719 86.644531 L 148.66602 73.183594 C 150.14219 60.35531 150.3477 59.615593 153.04492 57.445312 C 159.24955 52.452783 166.16381 56.883442 165.89648 65.679688 C 165.81863 68.23941 165.89986 70.513323 166.07617 70.732422 C 166.2523 70.951634 170.67357 67.69012 175.90039 63.484375 L 185.4043 55.837891 L 189.53906 56.285156 C 193.15766 56.676829 194.01894 57.159753 196.43164 60.158203 C 198.711 62.990959 199.15638 64.240535 198.99609 67.367188 L 198.80078 71.150391 L 188.76953 79.582031 L 178.73633 88.011719 L 183.86133 88.779297 C 187.9953 89.397817 189.38935 90.046639 191.06641 92.130859 C 194.49293 96.389329 193.04022 102.01705 187.9043 104.38281 C 186.65645 104.95764 180.13614 104.83942 172.91406 104.11133 L 160.13086 102.82227 L 151.23633 109.97852 C 146.3449 113.91436 142.49479 117.32298 142.67969 117.55273 C 142.86488 117.78253 147.94374 119.81611 153.9668 122.07227 L 164.91797 126.17383 L 175.73633 121.27539 C 188.34393 115.56626 191.97586 115.17487 195.37305 119.16016 C 196.82907 120.8685 197.38218 122.4689 197.22461 124.52148 C 196.92565 128.4198 194.90269 130.74747 190.13281 132.68164 L 186.18555 134.28125 L 188.55859 135.30664 C 189.86336 135.87096 194.66653 137.82411 199.23242 139.64648 C 208.33213 143.27857 211.39161 145.96474 212.11523 150.95508 C 213.00063 157.06098 206.91293 163.55948 200.91406 162.91016 C 199.44326 162.75104 193.9604 160.91952 188.72852 158.8418 C 183.49667 156.76404 179.20224 155.47961 179.1875 155.98633 C 179.17238 156.49309 179.83942 158.50881 180.66797 160.4668 C 182.27351 164.26084 181.32641 169.03276 178.51758 171.30078 C 176.49791 172.93014 170.74024 172.65259 168.58398 170.82031 C 167.60342 169.98712 164.695 164.58212 162.11914 158.80859 C 159.54328 153.03506 157.02729 147.80444 156.5293 147.18555 C 155.41963 145.8064 135.87546 137.88396 135.10742 138.50195 C 134.33938 139.11994 137.89615 159.90604 139.00586 161.28516 C 139.50381 161.90405 144.0755 165.48067 149.16406 169.23242 C 154.25255 172.98413 158.90959 176.98298 159.51367 178.11914 C 160.84206 180.61752 159.88204 186.30251 157.85742 187.92578 C 155.04062 190.1839 150.17699 190.08719 146.81445 187.70703 C 145.07912 186.47868 143.25209 185.39677 142.75391 185.30273 C 142.25573 185.20862 142.59211 189.67712 143.50195 195.23242 C 145.45068 207.12886 145.29523 209.84232 142.47461 213.13867 C 139.75909 216.31219 133.93547 217.91406 130.54883 216.41797 C 125.85072 214.34255 123.88351 210.67126 122.42578 201.25781 C 121.68333 196.46333 120.84531 191.4058 120.56445 190.01758 L 120.05469 187.49414 L 117.64648 191.00781 C 114.7364 195.25332 112.03221 196.72937 108.16016 196.1875 C 106.1214 195.90215 104.6754 195.01849 103.31836 193.23047 C 100.15244 189.05916 101.31112 185.59577 109.58594 174.50195 L 116.6875 164.98242 L 115.02344 153.4082 C 114.10845 147.04185 113.20833 141.64382 113.02344 141.41406 C 112.83862 141.18427 108.68443 144.21646 103.79297 148.15234 L 94.900391 155.30859 L 93.423828 168.07227 C 92.589649 175.28292 91.309017 181.67745 90.480469 182.77344 C 87.070428 187.28404 81.262457 187.4987 77.835938 183.24023 C 76.158923 181.15605 75.823037 179.65689 76.103516 175.48633 L 76.451172 170.31641 L 66.068359 178.31055 L 55.6875 186.30664 L 51.951172 185.6875 C 48.862629 185.175 47.7364 184.47338 45.457031 181.64062 C 43.04437 178.64221 42.754767 177.69672 43.146484 174.07812 L 43.59375 169.94336 L 53.097656 162.29492 C 58.324478 158.08918 62.457482 154.46902 62.28125 154.25 C 62.104973 154.03079 59.899925 153.4659 57.382812 152.99414 C 48.733156 151.37287 45.887184 143.67026 52.091797 138.67773 C 54.789015 136.50742 55.553387 136.46432 68.400391 137.76758 L 81.880859 139.13477 L 90.775391 131.97852 C 95.667611 128.04199 99.485479 124.59476 99.259766 124.31836 C 99.034128 124.04208 93.991015 121.97934 88.052734 119.73438 L 77.255859 115.65234 L 65.828125 120.69531 C 52.841007 126.42625 49.98092 126.71336 46.505859 122.63672 C 44.783665 120.61637 44.512911 119.45996 45.029297 116.33984 C 45.686969 112.36605 45.860145 112.1999 53.0625 108.55273 L 55.675781 107.22852 L 47.339844 104.06836 C 42.754831 102.32997 38.112679 100.63832 37.025391 100.30859 C 34.540215 99.55488 30.310509 94.292494 29.796875 91.314453 C 29.223698 87.994327 30.939994 83.537495 33.623047 81.375 C 37.613536 78.159831 41.245715 78.414015 52.425781 82.695312 C 58.143496 84.884831 62.829519 86.311155 62.837891 85.863281 C 62.846206 85.415294 62.207115 83.52514 61.417969 81.664062 C 59.508185 77.159999 60.10403 73.984184 63.351562 71.371094 C 66.368351 68.943654 70.765198 68.870564 73.507812 71.201172 C 74.464676 72.014299 77.494256 77.791869 80.240234 84.041016 L 85.232422 95.404297 L 95.898438 99.5625 C 101.7651 101.84945 106.717 103.59836 106.90234 103.44922 C 107.08754 103.30031 106.4395 98.089336 105.46094 91.869141 L 103.68164 80.558594 L 93.417969 73.080078 C 87.772715 68.966743 82.775076 64.779611 82.3125 63.775391 C 80.868418 60.640461 81.999374 56.367907 84.888672 54.042969 C 88.136193 51.429879 91.36643 51.525925 95.357422 54.355469 C 97.006543 55.52459 98.715002 56.55294 99.154297 56.640625 C 99.593667 56.72831 99.204275 51.846789 98.289062 45.792969 C 96.499418 33.955714 97.026335 30.351964 101.02148 27.142578 C 102.8685 25.658851 105.67681 24.853429 108.26562 24.908203 z "
       transform="scale(0.26458333)" />
  </g>
</svg>
