<?xml version="1.0" encoding="UTF-8" standalone="no"?>
<!-- Created with Inkscape (http://www.inkscape.org/) -->

<svg
   width="64mm"
   height="64mm"
   viewBox="0 0 64 64"
   version="1.1"
   id="svg959"
   inkscape:version="1.1.2 (b8e25be833, 2022-02-05)"
   sodipodi:docname="Leodar.svg"
   xmlns:inkscape="http://www.inkscape.org/namespaces/inkscape"
   xmlns:sodipodi="http://sodipodi.sourceforge.net/DTD/sodipodi-0.dtd"
   xmlns="http://www.w3.org/2000/svg"
   xmlns:svg="http://www.w3.org/2000/svg">
  <sodipodi:namedview
     id="namedview961"
     pagecolor="#505050"
     bordercolor="#ffffff"
     borderopacity="1"
     inkscape:pageshadow="0"
     inkscape:pageopacity="0"
     inkscape:pagecheckerboard="1"
     inkscape:document-units="px"
     showgrid="false"
     inkscape:zoom="3.2866211"
     inkscape:cx="120.94488"
     inkscape:cy="120.94488"
     inkscape:window-width="1920"
     inkscape:window-height="991"
     inkscape:window-x="-9"
     inkscape:window-y="-9"
     inkscape:window-maximized="1"
     inkscape:current-layer="layer1" />
  <defs
     id="defs956" />
  <g
     inkscape:label="Layer 1"
     inkscape:groupmode="layer"
     id="layer1">
    <path
       id="path1042"
       style="fill:#ff6600;stroke-width:2;stroke-linecap:square;paint-order:markers stroke fill;stop-color:#000000"
       d="M 120.94531 4.1074219 A 116.83732 116.83732 0 0 0 4.1074219 120.94531 A 116.83732 116.83732 0 0 0 120.94531 237.78125 A 116.83732 116.83732 0 0 0 237.78125 120.94531 A 116.83732 116.83732 0 0 0 120.94531 4.1074219 z M 173.1582 48.841797 C 175.61498 48.825545 180.35278 49.899595 182.41797 50.939453 C 184.51549 51.995604 187.17551 54.551037 187.49805 55.822266 C 187.61782 56.294975 187.53051 57.029073 187.30469 57.453125 C 186.93479 58.148944 187.12057 58.344073 189.19141 59.441406 C 192.32174 61.099576 194.4846 63.231415 194.48828 64.662109 C 194.49084 65.687662 194.65787 65.819411 196.67188 66.396484 C 200.48572 67.489263 204.59689 69.196768 206.20508 70.355469 L 207.76367 71.478516 L 207.77148 74.248047 C 207.78056 77.769743 207.0367 80.278613 205.13867 83.136719 C 204.3104 84.383967 203.63429 85.810148 203.63477 86.304688 C 203.63587 87.470282 202.39822 89.49739 201.33789 90.068359 C 200.16182 90.701665 197.54004 90.277077 196.76758 89.328125 C 196.35142 88.816887 195.68869 88.550565 194.84375 88.552734 C 192.51476 88.558782 190.76312 91.25693 190.7832 94.808594 C 190.79038 96.112467 190.97135 96.443393 192.06641 97.148438 C 194.92803 98.990897 197.4561 103.16719 197.89258 106.77344 L 198.12891 108.71484 L 196.58008 107.0625 C 195.72841 106.15412 194.9347 105.50801 194.81641 105.62695 C 194.69814 105.74601 195.18458 107.28176 195.89844 109.03906 C 197.93323 114.04824 198.6878 117.61945 198.48633 121.28906 L 198.42578 122.4082 L 196.99805 121.01953 C 195.64221 119.70238 193.30294 118.54057 192.875 118.9707 C 192.76577 119.08076 192.96036 120.66027 193.30664 122.48242 C 193.65292 124.30454 194.06154 127.56128 194.21484 129.71875 C 194.45874 133.15137 194.421 133.61017 193.91602 133.39453 C 192.02227 132.58584 190.56426 132.15302 189.69531 132.14062 C 188.84331 132.12853 188.55459 132.45621 187.63086 134.49609 C 186.8418 136.23868 186.55654 137.46774 186.55078 139.13867 L 186.54297 141.41211 L 184.94141 141.2832 C 183.5875 141.17488 183.17153 141.32376 182.25586 142.24414 C 181.18586 143.31967 181.15872 143.32637 180.08008 142.67773 C 178.30025 141.60739 175.86698 141.40425 174.91797 142.24805 C 173.51386 143.49652 170.60436 148.30191 169.16211 151.75195 C 165.40689 160.73509 163.1481 175.92887 165.01367 179.66211 C 166.05393 181.74373 167.98054 182.87172 171.16797 183.26367 C 176.04233 183.86306 177.2854 185.14595 177.66211 189.96289 L 177.88086 192.75781 L 170.24023 192.77734 C 163.29536 192.79511 162.57882 192.73666 162.38477 192.13477 C 161.51834 189.44757 160.65699 189.01403 156.20898 189.02539 C 152.9975 189.03371 152.80841 188.98754 151.18164 187.75195 C 149.10197 186.17241 146.97335 183.08698 146.10742 180.40039 C 145.18775 177.54697 145.42682 171.40005 146.55469 168.88281 C 147.00256 167.88334 147.75435 166.90332 148.24609 166.67773 C 149.10545 166.28354 149.12229 166.18022 148.8418 163.16992 C 148.47964 159.28555 149.00048 154.68955 150.0332 152.65234 C 150.97447 150.79557 150.98482 150.80874 146.78906 148.76562 C 140.72545 145.81301 130.59626 143.67029 122.68945 143.66602 L 120.57227 143.66406 L 120.09961 145.27539 C 119.33101 147.89913 116.80667 152.46961 114.79492 154.88086 C 110.15712 160.43958 109.40235 161.50398 107.81641 164.71875 C 105.12412 170.17614 104.98422 169.54697 110.29492 175.88672 L 114.88477 181.36719 L 117.59766 181.82031 C 120.73677 182.3446 124.18824 183.94431 125.20703 185.34766 C 125.59612 185.88362 126.05595 186.94632 126.23047 187.71094 L 126.54883 189.10156 L 117.94531 189.12305 L 109.3418 189.14648 L 105.57227 185.8125 C 101.83659 182.51012 97.068964 177.63903 95.238281 175.25195 C 93.372608 172.81929 93.427194 168.82402 95.349609 167.0332 C 96.226259 166.21656 96.267081 165.96422 96.255859 161.54297 L 96.244141 156.9082 L 95.015625 157.73633 C 92.753891 159.2595 87.685859 161.52534 85.236328 162.10938 C 83.453359 162.53447 80.544939 162.69656 74.242188 162.7168 C 64.663349 162.74779 64.055285 162.87003 61.351562 165.32031 C 58.752087 167.67614 58.41588 168.86731 58.423828 175.70508 L 58.429688 181.64258 L 59.851562 182.09766 C 65.435304 183.88962 68.772203 187.13263 69.449219 191.42578 L 69.703125 193.03516 L 61.902344 193.04688 C 55.13897 193.05708 53.897381 192.96634 52.560547 192.36328 C 50.651455 191.50208 48.36278 189.5374 47.630859 188.13086 C 47.178416 187.2614 47.074357 184.55478 47.044922 173.06836 L 47.007812 159.06445 L 49.5625 158.2168 C 55.312265 156.30823 60.709223 152.83393 64.933594 148.32031 C 68.05192 144.9885 70.21638 141.89076 71.005859 139.63477 L 71.541016 138.10742 L 65.486328 138.12305 C 61.176892 138.13401 59.077304 137.98908 58.208984 137.61914 C 56.46855 136.87759 54.729438 134.90884 53.494141 132.2832 C 52.547634 130.27142 52.424588 129.58354 52.416016 126.22656 C 52.406945 122.65168 52.483687 122.27538 53.777344 119.54883 C 54.839663 117.30966 56.003126 115.75642 58.949219 112.63867 C 63.303412 108.03077 63.918881 106.67612 63.90625 101.74414 C 63.885463 93.654765 59.177105 90.713139 51.673828 94.103516 C 48.763698 95.418444 48.489665 95.978562 49.482422 98.611328 C 52.336612 106.18075 47.507901 112.47913 37.130859 114.7168 C 36.147789 114.92875 34.984238 115.18334 34.546875 115.2832 C 33.878851 115.43582 33.956309 115.24687 35.027344 114.10547 C 37.487416 111.48363 37.825222 110.02945 37.21875 104.66016 C 36.957585 102.34847 37.021191 101.7886 37.697266 100.45508 C 39.141141 97.606868 41.907679 95.769599 43.976562 96.283203 C 44.731928 96.47063 45.037132 96.277121 45.708984 95.183594 C 48.390518 90.819793 55.63949 87.94107 60.548828 89.291016 C 67.15867 91.108522 69.687483 104.01432 64.910156 111.54688 C 64.424162 112.31291 63.070536 114.1344 61.900391 115.5957 C 59.008341 119.20736 57.896187 121.52646 57.902344 123.93945 C 57.911415 127.5146 60.279892 130.88769 63.566406 132.00586 C 65.292603 132.59324 66.270284 132.55335 68.421875 131.82031 C 71.264839 130.85009 73.540493 129.12404 80.4375 122.70312 C 87.312453 116.30272 90.004674 114.14384 93.640625 112.11914 C 96.82696 110.34474 99.485117 109.59636 111.34766 107.13672 C 131.3376 102.9919 137.6241 100.71445 141.88477 96.068359 C 142.91954 94.939993 143.34719 94.175755 143.19922 93.71875 C 142.64972 92.022003 142.06853 91.309247 140.89062 90.886719 C 140.19253 90.636098 139.67451 90.33815 139.74023 90.224609 C 140.67472 88.611246 144.30195 80.610132 145.07617 78.453125 C 146.17254 75.398552 147.15735 70.820936 147.15234 68.806641 C 147.14705 66.693896 149.57617 62.441547 152.6875 59.117188 C 158.36021 53.056019 166.66939 48.88466 173.1582 48.841797 z "
       transform="scale(0.26458333)" />
  </g>
</svg>
