<?xml version="1.0" encoding="UTF-8" standalone="no"?>
<!-- Created with Inkscape (http://www.inkscape.org/) -->

<svg
   viewBox="0 0 64 64"
   version="1.1"
   id="svg959"
   inkscape:version="1.1.2 (b8e25be833, 2022-02-05)"
   sodipodi:docname="Moradar.svg"
   xmlns:inkscape="http://www.inkscape.org/namespaces/inkscape"
   xmlns:sodipodi="http://sodipodi.sourceforge.net/DTD/sodipodi-0.dtd"
   xmlns="http://www.w3.org/2000/svg"
   xmlns:svg="http://www.w3.org/2000/svg">
  <sodipodi:namedview
     id="namedview961"
     pagecolor="#505050"
     bordercolor="#ffffff"
     borderopacity="1"
     inkscape:pageshadow="0"
     inkscape:pageopacity="0"
     inkscape:pagecheckerboard="1"
     inkscape:document-units="px"
     showgrid="false"
     inkscape:zoom="3.2866211"
     inkscape:cx="120.94488"
     inkscape:cy="120.94488"
     inkscape:window-width="1920"
     inkscape:window-height="991"
     inkscape:window-x="-9"
     inkscape:window-y="-9"
     inkscape:window-maximized="1"
     inkscape:current-layer="layer1" />
  <defs
     id="defs956" />
  <g
     inkscape:label="Layer 1"
     inkscape:groupmode="layer"
     id="layer1">
    <path
       id="path1042"
       style="fill:#ff6600;stroke-width:2;stroke-linecap:square;paint-order:markers stroke fill;stop-color:#000000"
       d="M 120.94531 4.1074219 A 116.83732 116.83732 0 0 0 4.1074219 120.94531 A 116.83732 116.83732 0 0 0 120.94531 237.78125 A 116.83732 116.83732 0 0 0 237.78125 120.94531 A 116.83732 116.83732 0 0 0 120.94531 4.1074219 z M 73.583984 46.023438 C 74.012149 45.999095 74.417876 46.069472 74.828125 46.222656 C 76.935665 47.009516 77.240356 48.650571 76.285156 54.072266 C 71.402384 81.786748 80.648735 109.78739 101.22656 129.60742 C 125.32956 152.82275 161.3707 159.62175 191.77734 146.68945 C 196.86251 144.52666 198.66166 144.37103 199.96484 145.98047 C 201.39676 147.74876 201.16164 149.01033 198.55078 153.5918 C 191.3072 166.30261 178.82755 178.43949 165.38086 185.85156 C 152.14469 193.14756 134.10877 196.9153 118.63281 195.61719 C 82.262909 192.56654 51.674178 166.3656 43.324219 131.10938 C 40.620269 119.69244 40.309789 106.1239 42.501953 95.224609 C 46.012114 77.772225 55.852589 60.300994 68.484375 49.09375 C 70.822873 47.018959 72.299491 46.096465 73.583984 46.023438 z M 120.3418 49.830078 C 133.00129 49.830078 134.01953 50.066394 134.01953 53.001953 C 134.01953 54.027944 131.55591 58.866448 126.67578 67.423828 C 122.63645 74.506814 119.51975 80.484341 119.75 80.707031 C 119.98017 80.929645 123.03194 81.189395 126.53125 81.283203 C 132.4252 81.441187 132.99216 81.54682 134.24023 82.720703 C 135.05291 83.485075 135.58789 84.556741 135.58789 85.421875 C 135.58789 89.722297 134.43727 90.078125 120.52539 90.078125 C 109.72849 90.078125 108.99148 90.015067 107.69336 88.994141 C 105.23508 87.060459 105.69162 85.726048 113.43164 72.203125 C 117.62994 64.868082 120.42115 59.450693 120.24219 58.984375 C 119.99727 58.346315 118.84762 58.193359 114.26562 58.193359 C 108.89318 58.193359 108.52557 58.123923 107.36719 56.890625 C 105.65506 55.068137 105.73814 52.62716 107.56641 51.054688 C 108.96419 49.852382 109.18936 49.830078 120.3418 49.830078 z M 154.32422 80.667969 L 165.53125 80.667969 C 176.07817 80.667969 176.82115 80.732501 178.11719 81.751953 C 178.87464 82.347796 179.49414 83.364222 179.49414 84.009766 C 179.49414 84.655271 176.18059 91.000789 172.13086 98.111328 C 168.0235 105.32304 164.8966 111.3747 165.05859 111.79688 C 165.29028 112.40077 166.64737 112.55273 171.78125 112.55273 C 176.60895 112.55273 178.49147 112.74516 179.31836 113.32422 C 181.64866 114.95645 181.24938 119.14197 178.65039 120.32617 C 177.81073 120.70874 173.24183 120.91602 165.67578 120.91602 C 155.04457 120.91602 153.88864 120.82784 152.78906 119.9375 C 150.48166 118.06909 151.06833 116.41304 158.76953 103.02539 C 162.69347 96.204099 165.9043 90.407586 165.9043 90.144531 C 165.9043 89.28072 164.32309 89.03125 158.8418 89.03125 C 153.6225 89.03125 153.39717 88.983519 152.35156 87.654297 C 150.85037 85.745824 150.99332 84.000781 152.79688 82.197266 L 154.32422 80.667969 z "
       transform="scale(0.26458333)" />
  </g>
</svg>
