<?xml version="1.0" encoding="UTF-8" standalone="no"?>
<!-- Created with Inkscape (http://www.inkscape.org/) -->

<svg
   width="64mm"
   height="64mm"
   viewBox="0 0 64 64"
   version="1.1"
   id="svg959"
   inkscape:version="1.1.2 (b8e25be833, 2022-02-05)"
   sodipodi:docname="Ophidar.svg"
   xmlns:inkscape="http://www.inkscape.org/namespaces/inkscape"
   xmlns:sodipodi="http://sodipodi.sourceforge.net/DTD/sodipodi-0.dtd"
   xmlns="http://www.w3.org/2000/svg"
   xmlns:svg="http://www.w3.org/2000/svg">
  <sodipodi:namedview
     id="namedview961"
     pagecolor="#505050"
     bordercolor="#ffffff"
     borderopacity="1"
     inkscape:pageshadow="0"
     inkscape:pageopacity="0"
     inkscape:pagecheckerboard="1"
     inkscape:document-units="px"
     showgrid="false"
     inkscape:zoom="3.2866211"
     inkscape:cx="120.94488"
     inkscape:cy="120.94488"
     inkscape:window-width="1920"
     inkscape:window-height="991"
     inkscape:window-x="-9"
     inkscape:window-y="-9"
     inkscape:window-maximized="1"
     inkscape:current-layer="layer1" />
  <defs
     id="defs956" />
  <g
     inkscape:label="Layer 1"
     inkscape:groupmode="layer"
     id="layer1">
    <path
       id="path1042"
       style="fill:#ff6600;stroke-width:2;stroke-linecap:square;paint-order:markers stroke fill;stop-color:#000000"
       d="M 120.94531 4.1074219 A 116.83732 116.83732 0 0 0 4.1074219 120.94531 A 116.83732 116.83732 0 0 0 120.94531 237.78125 A 116.83732 116.83732 0 0 0 237.78125 120.94531 A 116.83732 116.83732 0 0 0 120.94531 4.1074219 z M 82.332031 39.238281 C 87.247529 39.239203 92.24193 40.506334 95.662109 42.808594 C 102.14999 47.175849 104.75173 55.197858 102.71875 64.564453 C 101.3972 70.653325 99.600869 73.110676 88.808594 83.597656 C 79.521595 92.62197 76.474953 96.696243 75 102.0625 C 74.159524 105.12038 74.260356 108.01526 75.285156 110.25 C 76.240772 112.33374 78.097015 113.27125 80.9375 113.10352 C 82.75608 112.99621 83.459152 112.7328 86.28125 111.10156 C 89.294626 109.35976 89.640291 109.05602 91.035156 106.94531 C 92.826943 104.23402 95.067324 99.191132 98.201172 90.810547 C 105.74721 70.630957 109.35358 64.41208 118.95508 55.021484 C 130.42507 43.803412 140.85909 40.033724 152.1582 43.025391 C 157.33724 44.396675 161.70218 46.652127 166.28906 50.326172 C 170.31873 53.553873 172.3602 55.711241 174.76758 59.289062 C 179.47165 66.280255 181.08953 74.61979 179.59961 84.201172 C 177.64432 96.775033 169.29343 111.26938 158.52148 120.78906 C 154.04586 124.74436 136.2301 136.25946 121.04297 145.01367 C 107.5916 152.76716 101.92427 158.23634 99.53125 165.76953 C 96.246153 176.11091 105.64808 183.91082 114.99219 178.5957 C 117.20222 177.33857 117.63204 176.919 119.43555 174.27734 C 121.68155 170.98751 124.09894 166.72526 129.1543 157.13477 C 133.18139 149.49501 135.23542 146.65425 139.01758 143.5 C 143.94801 139.38819 150.0233 137.06977 159.39258 135.72461 L 164.19336 135.03711 L 171 131.43359 C 178.41046 127.5114 180.92876 126.595 184.87891 126.37891 C 188.23026 126.19571 191.16424 127.11759 196.82227 130.13672 C 201.93025 132.86238 203.61103 133.31511 210.36523 133.78125 C 213.89692 134.02514 214.87158 134.6335 216.61914 137.6875 C 218.42385 140.84139 218.56678 142.68852 217.37305 147.41797 C 216.14232 152.29398 215.43212 153.6237 213.66797 154.34766 C 211.99372 155.03473 207.13378 155.42128 203.33203 155.16992 C 200.16483 154.96061 198.62377 155.40297 194.57617 157.6875 C 191.55888 159.39041 189.14127 160.11846 185.94336 160.28711 C 182.86737 160.44948 179.90743 159.69371 173.41016 157.08594 C 168.29667 155.03358 167.73431 154.89968 165.45117 155.19336 C 162.00674 155.63635 158.86636 156.58079 156.70508 157.82617 C 152.30016 160.36437 146.10452 168.45011 144.35742 173.93945 C 141.79071 182.00384 138.42967 187.96745 134.35938 191.67969 C 130.55511 195.14925 121.49907 199.83017 115.39844 201.48242 C 105.75493 204.09418 96.687937 202.3142 88.777344 196.25586 C 85.452678 193.70965 83.280394 191.20337 81.048828 187.33984 C 78.591466 183.0854 77.38204 178.97677 77.013672 173.63477 C 76.526702 166.5734 78.053958 159.1322 81.080078 153.82422 C 82.800738 150.80608 87.302602 145.05189 90.767578 141.44336 C 95.697908 136.30869 105.70737 129.18448 117.80859 122.19336 C 132.8646 113.49527 142.11269 106.13653 147.60352 98.486328 C 152.76452 91.295667 155.24398 81.081817 153.09766 75.851562 C 150.6135 69.798056 141.69996 68.864957 135.3125 73.990234 C 132.72093 76.069734 131.1026 78.604312 127.9043 85.591797 C 119.8056 103.2855 115.23487 111.31909 109.04688 118.73633 C 103.04045 125.93592 98.422314 130.02443 92.4375 133.43945 C 85.097529 137.62779 79.544167 138.44623 72.035156 136.44922 C 65.124657 134.6114 60.930141 131.3896 57.341797 125.16211 C 52.859787 117.38377 52.219158 107.72393 55.591797 98.771484 C 59.135943 89.363836 65.055028 82.006597 75.900391 73.535156 C 82.924552 68.048461 86.390463 63.772922 87.384766 59.367188 C 88.312111 55.258028 86.772641 52.596685 83.066406 51.902344 C 79.135709 51.165922 75.285766 52.763735 71.900391 56.537109 C 70.829911 57.73028 67.746592 61.75962 65.046875 65.492188 C 62.347155 69.224721 59.115377 73.428779 57.865234 74.833984 C 48.803862 85.019418 40.308497 87.868338 30.900391 83.878906 C 26.083685 81.836431 23.714173 78.80339 23.744141 74.720703 C 23.765306 71.77037 25.65619 68.550466 26.814453 69.490234 C 27.046713 69.678719 27.200948 70.889164 27.158203 72.179688 C 27.096431 74.038263 27.273489 74.836158 28.003906 76.017578 C 31.974841 82.439381 42.660028 80.76497 49.306641 72.679688 C 51.523345 69.98318 52.868719 67.612507 55.916016 61.033203 C 58.973298 54.432266 62.28329 49.251352 65.349609 46.269531 C 67.972345 43.719087 72.805672 40.848677 75.833984 40.042969 C 77.880121 39.498588 80.097714 39.237862 82.332031 39.238281 z "
       transform="scale(0.26458333)" />
  </g>
</svg>
