<?xml version="1.0" encoding="UTF-8" standalone="no"?>
<!-- Created with Inkscape (http://www.inkscape.org/) -->

<svg
   width="64mm"
   height="64mm"
   viewBox="0 0 64 64"
   version="1.1"
   id="svg959"
   inkscape:version="1.1.2 (b8e25be833, 2022-02-05)"
   sodipodi:docname="Privadar.svg"
   xmlns:inkscape="http://www.inkscape.org/namespaces/inkscape"
   xmlns:sodipodi="http://sodipodi.sourceforge.net/DTD/sodipodi-0.dtd"
   xmlns="http://www.w3.org/2000/svg"
   xmlns:svg="http://www.w3.org/2000/svg">
  <sodipodi:namedview
     id="namedview961"
     pagecolor="#505050"
     bordercolor="#ffffff"
     borderopacity="1"
     inkscape:pageshadow="0"
     inkscape:pageopacity="0"
     inkscape:pagecheckerboard="1"
     inkscape:document-units="px"
     showgrid="false"
     inkscape:zoom="3.2866211"
     inkscape:cx="120.94488"
     inkscape:cy="120.94488"
     inkscape:window-width="1920"
     inkscape:window-height="991"
     inkscape:window-x="-9"
     inkscape:window-y="-9"
     inkscape:window-maximized="1"
     inkscape:current-layer="layer1" />
  <defs
     id="defs956" />
  <g
     inkscape:label="Layer 1"
     inkscape:groupmode="layer"
     id="layer1">
    <path
       id="path1042"
       style="fill:#ff6600;stroke-width:2;stroke-linecap:square;paint-order:markers stroke fill;stop-color:#000000"
       d="M 120.94531 4.1074219 A 116.83732 116.83732 0 0 0 4.1074219 120.94531 A 116.83732 116.83732 0 0 0 120.94531 237.78125 A 116.83732 116.83732 0 0 0 237.78125 120.94531 A 116.83732 116.83732 0 0 0 120.94531 4.1074219 z M 160.87109 55.427734 C 163.95377 55.445373 167.28361 55.785607 170.90039 56.4375 C 175.69567 57.30184 188.32923 61.63893 194.10352 64.404297 C 198.74716 66.628171 204.99716 69.969688 208.06055 71.865234 C 211.42735 73.948548 211.61607 74.859102 210.37695 83.015625 C 208.20142 97.336709 204.45519 109.60281 199.42188 118.88477 C 194.84079 127.3328 188.43824 133.39642 181.49219 135.86328 C 165.46019 141.55695 149.50209 133.2464 147.45117 118.13672 C 147.27127 116.81044 147.21959 114.72933 147.33789 113.51172 C 147.45619 112.29414 147.5596 111.08661 147.56641 110.82812 C 147.57397 110.51858 145.96903 111.14399 142.85742 112.66211 C 140.26062 113.92893 138.09053 115.09628 138.03516 115.25781 C 137.97998 115.4192 141.18647 122.21805 145.16016 130.36523 C 152.74374 145.91372 152.85695 146.22584 151.7793 148.31641 C 151.13474 149.56683 149.10203 150.70837 147.62109 150.65039 C 144.75561 150.53814 144.93425 150.8076 136.84961 134.33789 C 132.77981 126.04719 129.38897 119.31647 129.31641 119.37891 C 129.24384 119.44127 127.13272 120.52248 124.625 121.78125 L 120.06641 124.06836 L 125.49805 135.2207 C 129.8295 144.11544 130.91179 146.61388 130.84766 147.5625 C 130.59329 151.32759 126.23835 153.21031 123.31836 150.81836 C 122.92087 150.49256 120.15614 145.25424 117.17383 139.17578 L 111.75195 128.12305 L 107.02148 130.44531 L 102.29102 132.76953 L 105.59375 139.57617 C 109.10138 146.80652 109.27345 147.50513 108.05859 149.58984 C 106.86003 151.64666 104.08269 152.37503 101.90039 151.20508 C 100.89454 150.66582 100.38309 149.82146 97.363281 143.71484 L 93.958984 136.83203 L 89.523438 139.00977 L 85.087891 141.18945 L 75.755859 162.64844 C 65.332489 186.61639 65.653676 186.0159 63.037109 186.38867 C 61.30378 186.63548 60.281368 186.2885 59.037109 185.0332 C 57.921015 183.90706 58.242968 185.12412 53.970703 165.86523 L 51.009766 152.51953 L 41.681641 141.03125 C 36.551309 134.71366 32.03149 129.03941 31.636719 128.42188 C 30.308706 126.34442 30.597605 124.07203 32.392578 122.49219 C 34.345196 120.7736 33.563047 120.6381 58.398438 126.94727 L 80.933594 132.67188 L 85.371094 130.51172 L 89.808594 128.34961 L 86.453125 121.43555 C 83.591418 115.53869 83.125924 114.34616 83.279297 113.3125 C 83.524966 111.65544 85.106885 109.88452 86.732422 109.44727 C 88.077896 109.08519 90.175147 109.6182 91.085938 110.55469 C 91.378095 110.85516 93.07932 114.06326 94.867188 117.68359 L 98.117188 124.26758 L 102.85547 121.95508 L 107.59375 119.64453 L 102.10742 108.38477 C 96.243069 96.35143 96.173165 96.137157 97.462891 93.923828 C 98.660547 91.868597 101.43731 91.140089 103.62305 92.306641 C 104.6558 92.857847 105.25689 93.926948 110.33008 104.23633 L 115.90234 115.5625 L 120.64062 113.25 L 125.38086 110.9375 L 118.14062 96.123047 C 114.15923 87.974499 110.8921 80.886685 110.87891 80.373047 C 110.81654 77.944247 112.5247 75.922262 114.88086 75.636719 C 116.55345 75.434136 117.28968 75.609664 118.34375 76.474609 C 118.74128 76.800027 122.35357 83.77079 126.37109 91.964844 L 133.67578 106.86328 L 138.60547 104.45703 L 143.53711 102.05078 L 141.93164 101.10742 C 138.26312 98.950823 135.19558 95.625225 133.29883 91.75 C 130.44623 85.921817 130.2986 79.396723 132.87695 73.056641 C 134.38487 69.348773 135.76447 67.268614 138.74414 64.216797 C 144.60007 58.21914 151.62305 55.374819 160.87109 55.427734 z M 174.01172 73.841797 C 172.25679 73.909925 170.53136 74.917353 169.82617 76.974609 C 168.72508 80.186906 171.12056 83.310618 174.51367 83.087891 C 177.08216 82.919324 179.03615 80.601082 178.81055 77.992188 C 178.57063 75.217119 176.26806 73.754204 174.01172 73.841797 z "
       transform="scale(0.26458333)" />
  </g>
</svg>
