<?xml version="1.0" encoding="UTF-8" standalone="no"?>
<!-- Created with Inkscape (http://www.inkscape.org/) -->

<svg
   width="64mm"
   height="64mm"
   viewBox="0 0 64 64"
   version="1.1"
   id="svg959"
   inkscape:version="1.1.2 (b8e25be833, 2022-02-05)"
   sodipodi:docname="Sturmadar.svg"
   xmlns:inkscape="http://www.inkscape.org/namespaces/inkscape"
   xmlns:sodipodi="http://sodipodi.sourceforge.net/DTD/sodipodi-0.dtd"
   xmlns="http://www.w3.org/2000/svg"
   xmlns:svg="http://www.w3.org/2000/svg">
  <sodipodi:namedview
     id="namedview961"
     pagecolor="#505050"
     bordercolor="#ffffff"
     borderopacity="1"
     inkscape:pageshadow="0"
     inkscape:pageopacity="0"
     inkscape:pagecheckerboard="1"
     inkscape:document-units="px"
     showgrid="false"
     inkscape:zoom="3.2866211"
     inkscape:cx="120.94488"
     inkscape:cy="120.94488"
     inkscape:window-width="1920"
     inkscape:window-height="991"
     inkscape:window-x="-9"
     inkscape:window-y="-9"
     inkscape:window-maximized="1"
     inkscape:current-layer="layer1" />
  <defs
     id="defs956" />
  <g
     inkscape:label="Layer 1"
     inkscape:groupmode="layer"
     id="layer1">
    <path
       id="path1042"
       style="fill:#ff6600;stroke-width:2;stroke-linecap:square;paint-order:markers stroke fill;stop-color:#000000"
       d="M 120.94531 4.1074219 A 116.83732 116.83732 0 0 0 4.1074219 120.94531 A 116.83732 116.83732 0 0 0 120.94531 237.78125 A 116.83732 116.83732 0 0 0 237.78125 120.94531 A 116.83732 116.83732 0 0 0 120.94531 4.1074219 z M 92.107422 28.492188 C 101.65822 28.578497 111.0509 32.33885 118.36914 39.457031 C 120.95091 41.968248 124.46648 46.839443 125.85742 49.832031 L 126.5293 51.271484 L 129.63086 48.853516 C 138.87478 41.647143 150.66339 39.643482 161.5 43.4375 C 170.13929 46.462264 176.44006 52.018154 180.50391 60.193359 C 183.19715 65.611441 183.9351 68.955572 183.91211 75.628906 L 183.89258 81.195312 L 186.26953 81.455078 C 193.74784 82.273489 201.51688 86.520398 206.35352 92.433594 C 208.83966 95.473048 211.5636 100.97985 212.52734 104.91406 C 213.42887 108.59446 213.398 115.79309 212.46484 119.28906 C 210.1949 127.79337 203.69708 134.48781 194.94141 137.3457 L 192.17773 138.24805 L 128.58008 137.86133 C 93.601351 137.64869 63.743347 137.31877 62.228516 137.12695 C 38.929379 134.17642 23.227615 110.41282 30.498047 89.105469 C 33.851516 79.277612 41.705132 71.342078 51.332031 68.056641 L 53.75 67.232422 L 54.222656 62.884766 C 55.2212 53.688453 58.374404 46.753137 64.447266 40.394531 C 67.98473 36.690592 71.088014 34.366167 75.160156 32.371094 C 80.590703 29.710451 86.376942 28.440402 92.107422 28.492188 z M 66.015625 141.9082 C 67.620167 141.92219 69.386724 143.33697 69.832031 144.96484 C 70.219765 146.38248 70.103976 146.74122 67.744141 151.51367 C 64.561911 157.9494 63.038128 159.25313 60.115234 158.0332 C 58.882069 157.51851 57.945885 156.24573 57.716797 154.76953 C 57.542032 153.64408 57.952805 152.53994 60.138672 148.25195 C 62.859248 142.91505 63.810785 141.88937 66.015625 141.9082 z M 179.30469 142.5957 C 181.52153 142.48894 183.66457 144.23573 183.65234 146.56445 C 183.64516 147.93715 178.64109 157.44841 177.43359 158.38477 C 176.34024 159.23282 174.90466 159.39136 173.52734 158.81641 C 172.22237 158.27175 171.31706 156.9565 171.15039 155.36328 C 171.0175 154.09299 171.41735 153.04939 173.68945 148.75391 C 175.97259 144.43751 176.60165 143.55047 177.7832 142.98242 C 178.27722 142.74488 178.79311 142.62034 179.30469 142.5957 z M 98.791016 146.08008 L 115.625 146.19141 C 125.02807 146.25358 132.45835 146.45537 132.45703 146.64844 C 132.45589 146.83866 132.18573 147.62901 131.85547 148.4043 C 131.52521 149.17962 131.25352 149.99713 131.25195 150.2207 C 131.25002 150.48701 134.01732 150.64539 139.26758 150.68164 C 146.71168 150.73304 147.35944 150.79584 148.29102 151.53906 C 149.62618 152.60431 150.27645 154.63817 149.73047 156.04492 C 149.50226 156.63293 138.61181 169.58628 125.5293 184.83008 C 102.34989 211.83883 100.57968 213.73898 98.957031 213.35938 C 98.82694 213.32876 98.328887 213.22506 97.849609 213.12891 C 96.501006 212.85818 94.996958 210.78653 95.007812 209.21289 C 95.012726 208.46658 97.553603 199.75907 100.6543 189.86523 C 103.75494 179.97139 106.29194 171.75304 106.29297 171.60156 C 106.29402 171.45008 103.59392 171.30683 100.29102 171.2832 C 93.423387 171.23418 92.174906 170.82282 91.376953 168.34766 C 90.86694 166.76543 90.618344 167.59308 95.431641 154.92383 L 98.791016 146.08008 z M 44.701172 162.86133 C 46.866371 162.84511 48.845841 164.57011 48.830078 166.85352 C 48.817984 168.58794 44.437756 177.21773 43.005859 178.32812 C 41.707569 179.3349 39.423961 179.38452 38.261719 178.42969 C 35.895154 176.48544 36.03396 175.03991 39.183594 168.86133 C 41.49377 164.32953 41.957026 163.67337 43.195312 163.16602 C 43.692615 162.96222 44.201511 162.86507 44.701172 162.86133 z M 82.505859 163.12305 C 84.671043 163.10682 86.650544 164.83179 86.634766 167.11523 C 86.622671 168.84963 82.242459 177.4794 80.810547 178.58984 C 79.512287 179.5966 77.228668 179.64431 76.066406 178.68945 C 73.699821 176.74526 73.838612 175.30165 76.988281 169.12305 C 79.298427 164.59126 79.76171 163.93314 81 163.42578 C 81.497296 163.22198 82.006202 163.12679 82.505859 163.12305 z M 158.3418 163.43945 C 159.20348 163.44915 160.0648 163.66217 160.64453 164.07422 C 161.92518 164.98445 162.69084 167.01918 162.27734 168.41797 C 161.58973 170.7446 157.43868 178.31981 156.41797 179.11133 C 155.12012 180.1179 152.83592 180.16562 151.67383 179.21094 C 150.59515 178.32477 149.96958 177.05969 149.97852 175.7832 C 149.98796 174.38738 154.939 164.78204 156.04102 164.02148 C 156.61914 163.62252 157.48012 163.42976 158.3418 163.43945 z M 195.91797 163.9043 C 198.08316 163.88808 200.06265 165.61499 200.04688 167.89844 C 200.03478 169.63283 195.65459 178.26264 194.22266 179.37305 C 192.9244 180.37981 190.64076 180.42748 189.47852 179.47266 C 187.11193 177.52846 187.25072 176.08485 190.40039 169.90625 C 192.71053 165.37447 193.17383 164.71637 194.41211 164.20898 C 194.9094 164.00519 195.41831 163.90804 195.91797 163.9043 z M 61.033203 184.03711 C 63.039449 183.94132 65.078036 185.31864 65.458984 187.42969 C 65.668295 188.58962 65.345214 189.53623 63.392578 193.48828 C 62.119936 196.06414 60.620164 198.596 60.058594 199.11523 C 58.901673 200.18492 57.049431 200.64039 55.884766 200.14258 C 54.354012 199.48842 53.234653 197.84913 53.246094 196.2793 C 53.260456 194.32584 57.663646 185.57911 59.099609 184.65234 C 59.698514 184.26582 60.364455 184.06904 61.033203 184.03711 z M 136.64062 184.56055 C 138.64688 184.46476 140.68547 185.8401 141.06641 187.95117 C 141.27572 189.11107 140.95264 190.05768 139 194.00977 C 137.72731 196.5856 136.22762 199.11747 135.66602 199.63672 C 134.50913 200.70639 132.65882 201.16183 131.49414 200.66406 C 129.96341 200.00986 128.84206 198.37066 128.85352 196.80078 C 128.86788 194.8473 133.27107 186.1006 134.70703 185.17383 C 135.30594 184.7873 135.97187 184.59248 136.64062 184.56055 z M 174.44531 184.82031 C 176.45155 184.72452 178.49013 186.10184 178.87109 188.21289 C 179.0804 189.37282 178.75737 190.31938 176.80469 194.27148 C 175.53205 196.84734 174.03229 199.37915 173.4707 199.89844 C 172.31378 200.96812 170.46154 201.4236 169.29688 200.92578 C 167.76611 200.27159 166.64678 198.63041 166.6582 197.06055 C 166.67257 195.1071 171.07576 186.36232 172.51172 185.43555 C 173.11062 185.04901 173.77657 184.85224 174.44531 184.82031 z "
       transform="scale(0.26458333)" />
  </g>
</svg>
