<?xml version="1.0" encoding="UTF-8" standalone="no"?>
<!-- Created with Inkscape (http://www.inkscape.org/) -->

<svg
   viewBox="0 0 64 64"
   version="1.1"
   id="svg959"
   inkscape:version="1.1.2 (b8e25be833, 2022-02-05)"
   sodipodi:docname="Wisadar.svg"
   xmlns:inkscape="http://www.inkscape.org/namespaces/inkscape"
   xmlns:sodipodi="http://sodipodi.sourceforge.net/DTD/sodipodi-0.dtd"
   xmlns="http://www.w3.org/2000/svg"
   xmlns:svg="http://www.w3.org/2000/svg">
  <sodipodi:namedview
     id="namedview961"
     pagecolor="#505050"
     bordercolor="#ffffff"
     borderopacity="1"
     inkscape:pageshadow="0"
     inkscape:pageopacity="0"
     inkscape:pagecheckerboard="1"
     inkscape:document-units="px"
     showgrid="false"
     inkscape:zoom="3.2866211"
     inkscape:cx="120.94488"
     inkscape:cy="120.94488"
     inkscape:window-width="1920"
     inkscape:window-height="991"
     inkscape:window-x="-9"
     inkscape:window-y="-9"
     inkscape:window-maximized="1"
     inkscape:current-layer="layer1" />
  <defs
     id="defs956" />
  <g
     inkscape:label="Layer 1"
     inkscape:groupmode="layer"
     id="layer1">
    <path
       id="path1042"
       style="fill:#ff6600;stroke-width:2;stroke-linecap:square;paint-order:markers stroke fill;stop-color:#000000"
       d="M 120.94531 4.1074219 A 116.83732 116.83732 0 0 0 4.1074219 120.94531 A 116.83732 116.83732 0 0 0 120.94531 237.78125 A 116.83732 116.83732 0 0 0 237.78125 120.94531 A 116.83732 116.83732 0 0 0 120.94531 4.1074219 z M 65.478516 37.212891 C 65.9952 36.804975 78.295051 49.998801 87.210938 60.525391 C 91.459316 65.541285 95.233676 70.090937 95.597656 70.634766 C 96.218077 71.561691 96.122045 71.885161 94.060547 75.816406 C 83.579811 95.803187 74.881162 118.20973 71.697266 133.42578 C 70.102222 141.04854 69.736344 146.21856 70.289062 153.29492 C 70.630316 157.66489 70.646149 159.81494 70.337891 159.83203 C 70.085191 159.84564 68.860834 159.70488 67.617188 159.51953 C 48.023341 156.59584 32.43692 139.84783 31.007812 120.18164 C 30.498789 113.17643 31.602607 107.53161 35.804688 95.646484 C 40.235413 83.114712 49.049252 65.088084 59.613281 46.955078 C 62.645226 41.750748 65.284305 37.366244 65.478516 37.212891 z M 136.92969 37.904297 C 137.3494 37.85573 147.07474 47.508349 154.4375 55.28125 C 182.32971 84.727236 200.77676 109.5813 207.99023 127.42969 C 210.90722 134.64717 211.79139 145.12833 210.24609 154.16406 C 208.4885 164.44108 204.57672 173.13532 198.02148 181.33203 C 190.54237 190.68394 180.87863 197.41147 169.05078 201.49805 C 163.4956 203.41737 151.32515 205.02078 145.31641 204.625 C 125.1337 203.29563 107.4184 193.00195 96.470703 176.24219 C 90.844676 167.62941 87.105012 154.33568 87.757812 145.26367 C 89.000026 128.00096 100.91156 99.195309 122.25391 61.845703 C 128.24671 51.35816 136.4607 37.958321 136.92969 37.904297 z M 180.47266 120.89062 C 180.31879 120.90763 180.39561 121.87622 180.64453 123.04102 C 181.88038 128.82436 181.42095 139.77296 179.6543 146.63672 C 177.4813 155.07907 174.97486 159.72659 167.87695 168.48242 C 164.95579 172.08593 162.72049 175.15815 162.91016 175.30859 C 163.41593 175.70988 166.41019 175.78716 169.58984 175.48047 C 171.63312 175.28352 173.3145 174.78399 175.9082 173.60742 C 182.79969 170.48121 186.96567 166.61903 190.05273 160.49414 C 192.57508 155.48963 193.27402 152.67092 193.77148 145.49023 L 194.20312 139.24805 L 192.91992 135.78711 C 190.68172 129.74746 186.07635 123.64615 182.24023 121.63867 C 181.42126 121.2101 180.62666 120.87288 180.47266 120.89062 z "
       transform="scale(0.26458333)" />
  </g>
</svg>
